<svg width="37" height="37" viewBox="0 0 37 37" fill="none" xmlns="http://www.w3.org/2000/svg">
<path d="M12.5 18.5H18.25M18.25 18.5H24M18.25 18.5V12.75M18.25 18.5V24.25M35.5 2.4V34.6C35.5 34.905 35.3788 35.1975 35.1632 35.4132C34.9475 35.6288 34.655 35.75 34.35 35.75H2.15C1.845 35.75 1.55249 35.6288 1.33683 35.4132C1.12116 35.1975 1 34.905 1 34.6V2.4C1 2.095 1.12116 1.80249 1.33683 1.58683C1.55249 1.37116 1.845 1.25 2.15 1.25H34.35C34.655 1.25 34.9475 1.37116 35.1632 1.58683C35.3788 1.80249 35.5 2.095 35.5 2.4Z" stroke="#0066AE" stroke-width="1.5" stroke-linecap="round" stroke-linejoin="round"/>
</svg>
