<svg width="24" height="24" viewBox="0 0 24 24" fill="none" xmlns="http://www.w3.org/2000/svg">
<path d="M5.70065 6.70998C5.60794 6.80249 5.5344 6.91238 5.48421 7.03336C5.43403 7.15433 5.4082 7.28401 5.4082 7.41498C5.4082 7.54595 5.43403 7.67563 5.48421 7.7966C5.5344 7.91758 5.60794 8.02747 5.70065 8.11998L9.58065 12L5.70065 15.88C5.60806 15.9726 5.53462 16.0825 5.48452 16.2034C5.43441 16.3244 5.40863 16.454 5.40863 16.585C5.40863 16.7159 5.43441 16.8456 5.48452 16.9665C5.53462 17.0875 5.60806 17.1974 5.70065 17.29C5.79323 17.3826 5.90314 17.456 6.0241 17.5061C6.14507 17.5562 6.27472 17.582 6.40565 17.582C6.53658 17.582 6.66623 17.5562 6.78719 17.5061C6.90815 17.456 7.01807 17.3826 7.11065 17.29L11.7006 12.7C11.7934 12.6075 11.8669 12.4976 11.9171 12.3766C11.9673 12.2556 11.9931 12.1259 11.9931 11.995C11.9931 11.864 11.9673 11.7343 11.9171 11.6134C11.8669 11.4924 11.7934 11.3825 11.7006 11.29L7.12065 6.70998C6.73065 6.31998 6.09065 6.31998 5.70065 6.70998Z" fill="#0066AE"/>
<path d="M12.2905 6.71002C12.1978 6.80254 12.1242 6.91242 12.0741 7.0334C12.0239 7.15437 11.998 7.28405 11.998 7.41502C11.998 7.54599 12.0239 7.67567 12.0741 7.79665C12.1242 7.91762 12.1978 8.02751 12.2905 8.12002L16.1705 12L12.2905 15.88C12.1035 16.067 11.9985 16.3206 11.9985 16.585C11.9985 16.8494 12.1035 17.103 12.2905 17.29C12.4775 17.477 12.7311 17.582 12.9955 17.582C13.2599 17.582 13.5135 17.477 13.7005 17.29L18.2905 12.7C18.3832 12.6075 18.4567 12.4976 18.5069 12.3766C18.5571 12.2557 18.5829 12.126 18.5829 11.995C18.5829 11.8641 18.5571 11.7344 18.5069 11.6134C18.4567 11.4924 18.3832 11.3825 18.2905 11.29L13.7005 6.70002C13.3205 6.32002 12.6805 6.32002 12.2905 6.71002Z" fill="#0066AE"/>
</svg>
