<svg width="70" height="71" viewBox="0 0 70 71" fill="none" xmlns="http://www.w3.org/2000/svg">
<path d="M12.1109 0.670732C14.762 2.02219 16.9403 4.71463 19.0205 6.81307C19.2011 6.99456 19.3816 7.17604 19.5676 7.36303C19.9574 7.84146 19.9574 7.84146 19.9574 8.52439C20.1825 8.52439 20.4077 8.52439 20.6397 8.52439C20.6397 8.74976 20.6397 8.97512 20.6397 9.20732C20.8648 9.20732 21.09 9.20732 21.322 9.20732C21.322 9.43268 21.322 9.65805 21.322 9.89024C21.5471 9.89024 21.7723 9.89024 22.0043 9.89024C22.0043 10.1156 22.0043 10.341 22.0043 10.5732C22.2294 10.5732 22.4546 10.5732 22.6866 10.5732C22.6866 10.7985 22.6866 11.0239 22.6866 11.2561C22.9117 11.2561 23.1369 11.2561 23.3689 11.2561C23.3689 11.4815 23.3689 11.7068 23.3689 11.939C23.8755 12.108 23.8755 12.108 24.3923 12.2805C24.3923 12.5059 24.3923 12.7312 24.3923 12.9634C24.6175 12.9634 24.8426 12.9634 25.0746 12.9634C25.0746 13.1888 25.0746 13.4141 25.0746 13.6463C25.2998 13.6463 25.5249 13.6463 25.7569 13.6463C25.7569 13.8717 25.7569 14.0971 25.7569 14.3293C26.0398 14.4461 26.0398 14.4461 26.3283 14.5654C27.3509 15.1414 28.0657 15.8686 28.8966 16.6982C29.0612 16.8623 29.2259 17.0265 29.3956 17.1956C29.7416 17.5415 30.0867 17.8882 30.4311 18.2358C30.9601 18.7689 31.4926 19.2983 32.0256 19.8274C32.3616 20.1642 32.6975 20.5012 33.0331 20.8384C33.3388 21.1452 33.6445 21.452 33.9596 21.7681C34.6269 22.5244 34.6269 22.5244 34.6269 23.2073C36.9853 21.2464 39.1301 19.0818 41.2882 16.907C41.9384 16.2518 42.5897 15.5978 43.2412 14.944C44.6209 13.5591 45.9993 12.173 47.3774 10.7866C48.9823 9.17219 50.5877 7.55836 52.1945 5.94595C52.8366 5.30104 53.4777 4.65511 54.1188 4.00914C54.5099 3.61639 54.9011 3.2237 55.2923 2.83105C55.4706 2.65085 55.6489 2.47064 55.8326 2.28497C56.9664 1.14993 57.63 0.611767 59.2324 0.5C60.5768 0.530981 61.1927 0.773131 62.1735 1.68845C62.5251 2.01387 62.5251 2.01387 62.8838 2.34587C63.1283 2.58185 63.3728 2.81784 63.6247 3.06098C63.8745 3.3018 64.1243 3.54263 64.3817 3.79075C65.1521 4.54434 65.914 5.3057 66.6738 6.07012C66.9352 6.33048 67.1967 6.59084 67.466 6.85909C67.7143 7.108 67.9625 7.35692 68.2183 7.61338C68.4421 7.83778 68.6659 8.06218 68.8965 8.29339C69.885 9.36549 69.9546 10.3462 69.9116 11.7635C69.7441 12.7471 69.5157 13.0815 68.8451 13.8059C68.5178 14.1601 68.5178 14.1601 68.1839 14.5214C66.6284 16.1266 65.056 17.7136 63.4709 19.2894C62.8163 19.9402 62.1629 20.592 61.5096 21.2442C60.1261 22.6252 58.7412 24.0047 57.3561 25.3841C55.7432 26.9905 54.1308 28.5974 52.5199 30.2057C51.8755 30.8484 51.2302 31.49 50.5848 32.1317C50.1924 32.5232 49.8001 32.9147 49.4078 33.3063C49.2278 33.4848 49.0477 33.6632 48.8622 33.8471C47.9401 34.7566 47.9401 34.7566 47.2495 35.8415C47.4344 35.9157 47.6194 35.99 47.8099 36.0665C48.8885 36.6807 49.6967 37.5129 50.5637 38.3874C50.7547 38.5774 50.9457 38.7674 51.1425 38.9631C51.7726 39.5908 52.4002 40.221 53.0277 40.8514C53.466 41.2896 53.9044 41.7278 54.3429 42.1658C55.2617 43.0844 56.1792 44.0042 57.0959 44.9249C58.2682 46.1022 59.4435 47.2764 60.6199 48.4497C61.526 49.3542 62.4306 50.2604 63.3346 51.167C63.7672 51.6005 64.2003 52.0334 64.6339 52.4657C65.2413 53.072 65.8465 53.6805 66.4512 54.2895C66.6292 54.4662 66.8072 54.643 66.9905 54.8251C69.9505 57.822 69.9505 57.822 70 59.872C69.9103 61.1637 69.6193 61.7779 68.7447 62.725C68.5285 62.9604 68.3123 63.1958 68.0896 63.4383C66.8647 64.719 65.6268 65.9844 64.371 67.2348C64.1109 67.4964 63.8508 67.7581 63.5828 68.0277C63.3341 68.2762 63.0854 68.5247 62.8292 68.7807C62.605 69.0047 62.3808 69.2287 62.1498 69.4595C61.0786 70.4489 60.0988 70.5186 58.6827 70.4755C57.7003 70.308 57.367 70.0799 56.6438 69.4088C56.4079 69.1904 56.172 68.972 55.9289 68.747C54.1011 66.974 52.297 65.1786 50.5011 63.3733C50.0614 62.9326 49.6217 62.492 49.1819 62.0514C48.0326 60.8998 46.8842 59.747 45.7361 58.5941C44.5612 57.4146 43.3853 56.2361 42.2095 55.0574C39.9084 52.7506 37.6084 50.4427 35.3092 48.1341C33.8737 48.6946 32.918 49.756 31.8588 50.8326C31.6534 51.0386 31.448 51.2447 31.2364 51.457C30.5588 52.1374 29.8837 52.8201 29.2084 53.5029C28.738 53.9759 28.2673 54.4487 27.7965 54.9214C26.5581 56.1655 25.3216 57.4115 24.0857 58.658C22.1053 60.6549 20.1226 62.6496 18.1388 64.6431C17.4451 65.3409 16.7527 66.0398 16.0603 66.7388C15.6371 67.1647 15.2139 67.5906 14.7906 68.0165C14.5974 68.2121 14.4042 68.4078 14.2052 68.6094C13.033 69.786 12.3629 70.3843 10.7036 70.5C9.35921 70.469 8.74333 70.2269 7.76253 69.3115C7.52813 69.0946 7.29374 68.8777 7.05224 68.6541C6.68547 68.3002 6.68547 68.3002 6.3113 67.939C6.06151 67.6982 5.81173 67.4574 5.55437 67.2092C4.78389 66.4557 4.02201 65.6943 3.26226 64.9299C3.00082 64.6695 2.73938 64.4092 2.47002 64.1409C2.22177 63.892 1.97352 63.6431 1.71775 63.3866C1.49394 63.1622 1.27012 62.9378 1.03953 62.7066C0.0510542 61.6345 -0.0185551 60.6538 0.0244817 59.2364C0.191839 58.2531 0.419688 57.9195 1.09017 57.1956C1.41748 56.8414 1.41748 56.8414 1.75141 56.4801C3.52276 54.6506 5.31655 52.8448 7.1202 51.0473C7.56049 50.6072 8.0007 50.1671 8.44084 49.7269C9.59147 48.5765 10.7431 47.4271 11.895 46.278C13.0734 45.102 14.2509 43.925 15.4284 42.7481C17.7331 40.4449 20.0389 38.1428 22.3454 35.8415C21.7855 34.4047 20.7251 33.4481 19.6494 32.388C19.4436 32.1824 19.2377 31.9768 19.0256 31.765C18.3459 31.0868 17.6637 30.411 16.9816 29.7351C16.509 29.2642 16.0366 28.7932 15.5643 28.3219C14.3214 27.0824 13.0766 25.8448 11.8312 24.6077C9.83606 22.6255 7.84325 20.641 5.85153 18.6554C5.1544 17.9611 4.45613 17.268 3.75774 16.575C3.33221 16.1514 2.90671 15.7278 2.48126 15.3041C2.28578 15.1108 2.09029 14.9174 1.88889 14.7182C0.713304 13.545 0.115631 12.8742 0 11.2134C0.0309527 9.86777 0.272882 9.25133 1.18737 8.26963C1.40412 8.03502 1.62087 7.80041 1.84418 7.55869C2.07995 7.31396 2.31572 7.06922 2.55864 6.81707C2.79924 6.56706 3.03985 6.31704 3.28775 6.05945C4.04064 5.28826 4.80131 4.52569 5.56503 3.76524C5.82515 3.50356 6.08527 3.24188 6.35328 2.97228C6.60197 2.7238 6.85065 2.47533 7.10688 2.21932C7.33107 1.9953 7.55527 1.77129 7.78626 1.54048C9.05304 0.370407 10.4714 0.375671 12.1109 0.670732Z" fill="white"/>
</svg>
