<svg width="20" height="20" viewBox="0 0 20 20" fill="none" xmlns="http://www.w3.org/2000/svg">
<g id="faq 1" clip-path="url(#clip0_5207_16767)">
<path id="Vector" d="M9.99177 -0.0145891C10.0303 -0.0145678 10.0688 -0.0145466 10.1085 -0.0145247C10.7479 -0.0129089 11.3636 0.0251577 11.9913 0.156309C12.031 0.164473 12.0707 0.172637 12.1116 0.181048C13.5661 0.490139 14.9187 1.12178 16.0928 2.03131C16.1279 2.0581 16.163 2.08489 16.1992 2.11249C16.8067 2.58619 17.3784 3.14152 17.8507 3.75006C17.8805 3.78657 17.9103 3.82307 17.941 3.86069C18.9973 5.1794 19.6691 6.81161 19.921 8.47662C19.9279 8.52055 19.9348 8.56448 19.942 8.60975C20.0065 9.06107 20.013 9.50805 20.0113 9.96344C20.0112 10.0218 20.0112 10.0218 20.0111 10.0813C20.0093 10.6482 19.9915 11.2002 19.8819 11.7579C19.8756 11.7929 19.8693 11.8278 19.8628 11.8639C19.5547 13.5673 18.7856 15.1742 17.6553 16.4844C17.6306 16.5135 17.6058 16.5426 17.5803 16.5726C17.1189 17.1002 16.6208 17.5951 16.0538 18.0079C16.0089 18.0413 15.9639 18.0748 15.919 18.1083C15.5991 18.3442 15.2664 18.5536 14.921 18.7501C14.8963 18.7643 14.8716 18.7785 14.8462 18.7932C13.8294 19.3752 12.6803 19.7519 11.5225 19.9219C11.4756 19.9288 11.4286 19.9357 11.3802 19.9428C10.9225 20.0055 10.4679 20.0157 10.0064 20.0147C9.96787 20.0147 9.92932 20.0146 9.8896 20.0146C7.35232 20.0072 4.9143 19.0275 3.08503 17.2657C3.05927 17.241 3.03351 17.2163 3.00698 17.1909C2.63634 16.8337 2.29494 16.4705 1.99128 16.0547C1.95776 16.0098 1.92424 15.9648 1.89072 15.9199C1.65486 15.5999 1.44554 15.2673 1.24909 14.9219C1.23485 14.8973 1.22061 14.8726 1.20595 14.8471C0.622733 13.8282 0.252455 12.6823 0.0772146 11.5235C0.0668669 11.4577 0.0668669 11.4577 0.0563101 11.3906C-0.00841268 10.937 -0.016486 10.4871 -0.0155588 10.0294C-0.0155376 9.98982 -0.0155163 9.95029 -0.0154945 9.90956C-0.0139028 9.26369 0.0221807 8.64183 0.15534 8.00787C0.163503 7.96821 0.171667 7.92855 0.180078 7.88769C0.522965 6.27394 1.26526 4.76488 2.34284 3.51568C2.36761 3.48658 2.39239 3.45748 2.41791 3.42749C2.87929 2.89995 3.37736 2.40497 3.9444 1.99225C3.98932 1.95879 4.03423 1.92532 4.07914 1.89184C4.39912 1.65588 4.73176 1.44654 5.07721 1.25006C5.10189 1.23582 5.12657 1.22158 5.152 1.20692C6.16875 0.624962 7.31789 0.248188 8.47565 0.0781844C8.52262 0.0712859 8.56959 0.0643874 8.61799 0.0572798C9.07566 -0.00537593 9.5303 -0.0155513 9.99177 -0.0145891ZM7.77253 5.03912C7.74277 5.06516 7.71301 5.09119 7.68235 5.11801C7.07664 5.68382 6.73504 6.50932 6.67084 7.32779C6.66533 7.60368 6.71614 7.8043 6.86432 8.03717C7.06023 8.23307 7.24634 8.30694 7.51893 8.32434C7.75655 8.31466 7.95675 8.21428 8.12409 8.04693C8.26588 7.83506 8.3096 7.66058 8.33893 7.40973C8.41016 6.90277 8.55234 6.49971 8.96836 6.16888C9.42323 5.86263 9.90346 5.78282 10.4408 5.8837C10.8539 6.00457 11.1967 6.24939 11.4273 6.61413C11.6698 7.06625 11.7248 7.56474 11.5811 8.05914C11.3806 8.57506 11.033 8.86565 10.546 9.09918C9.93372 9.39589 9.54348 9.88629 9.29596 10.5079C9.19284 10.8148 9.16861 11.119 9.16413 11.4405C9.16358 11.4711 9.16302 11.5018 9.16245 11.5334C9.16464 11.7909 9.20884 12.0086 9.38019 12.2069C9.41041 12.232 9.44062 12.257 9.47175 12.2828C9.50196 12.3085 9.53217 12.3342 9.5633 12.3607C9.76055 12.504 10.0001 12.4822 10.2335 12.461C10.4512 12.3948 10.6209 12.2199 10.7413 12.0313C10.8402 11.8038 10.8322 11.5783 10.8312 11.3346C10.8385 11.0428 10.9361 10.8551 11.1461 10.6537C11.2695 10.5726 11.398 10.5055 11.5299 10.4395C11.7872 10.3061 12.0097 10.1561 12.2257 9.961C12.2552 9.93507 12.2848 9.90913 12.3152 9.88241C12.8735 9.36257 13.2862 8.53822 13.3194 7.7735C13.3214 7.73442 13.3234 7.69535 13.3255 7.65509C13.3495 6.76784 13.0471 5.94093 12.46 5.2735C12.434 5.24374 12.408 5.21398 12.3811 5.18332C11.8045 4.56602 10.9591 4.22017 10.1239 4.17364C9.24987 4.148 8.42706 4.46335 7.77253 5.03912ZM9.37409 14.4532C9.22241 14.6638 9.16816 14.8567 9.17878 15.1172C9.23379 15.3761 9.35945 15.5583 9.57428 15.7129C9.77025 15.8158 9.98687 15.8479 10.2039 15.8018C10.4482 15.7178 10.6268 15.5872 10.7494 15.3536C10.8308 15.1429 10.8467 14.9289 10.773 14.7144C10.6666 14.4772 10.5188 14.314 10.2725 14.2188C9.92726 14.136 9.62922 14.1981 9.37409 14.4532Z" fill="white"/>
</g>
<defs>
<clipPath id="clip0_5207_16767">
<rect width="20" height="20" fill="white"/>
</clipPath>
</defs>
</svg>
