<svg width="45" height="45" viewBox="0 0 45 45" fill="none" xmlns="http://www.w3.org/2000/svg">
<g clip-path="url(#clip0_1609_9913)">
<path d="M11.25 8.4375C18.675 8.4375 26.1 8.4375 33.75 8.4375C33.4863 10.9424 33.0007 13.1014 31.2012 14.9414C31.1411 15.0038 31.0811 15.0663 31.0192 15.1306C30.7394 15.4164 30.4533 15.6846 30.1465 15.9412C28.9078 17.0171 28.3346 18.4334 28.2129 20.0391C28.2014 20.3618 28.2008 20.6841 28.2014 21.007C28.2012 21.1005 28.201 21.194 28.2008 21.2903C28.2003 21.6015 28.2003 21.9128 28.2004 22.224C28.2002 22.448 28.1998 22.672 28.1995 22.8959C28.1988 23.3772 28.1984 23.8585 28.1981 24.3398C28.1976 25.101 28.1961 25.8622 28.1944 26.6234C28.1939 26.8843 28.1933 27.1451 28.1928 27.406C28.1926 27.4712 28.1925 27.5364 28.1923 27.6035C28.1908 28.3441 28.1893 29.0846 28.188 29.8252C28.1879 29.8928 28.1878 29.9604 28.1877 30.0301C28.1857 31.127 28.1848 32.2239 28.1841 33.3208C28.1834 34.4486 28.1814 35.5763 28.1782 36.7041C28.1762 37.3989 28.1754 38.0937 28.1759 38.7885C28.1762 39.3209 28.1747 39.8534 28.1725 40.3858C28.1719 40.6039 28.1719 40.8219 28.1725 41.04C28.1733 41.338 28.1719 41.6359 28.17 41.9339C28.1711 42.0629 28.1711 42.0629 28.1723 42.1945C28.163 42.984 27.8832 43.7172 27.334 44.2969C26.7056 44.8019 26.1333 45.0266 25.3229 45.0255C25.2555 45.0261 25.1881 45.0267 25.1187 45.0273C24.8971 45.029 24.6755 45.0293 24.4538 45.0295C24.2989 45.0301 24.1439 45.0307 23.9889 45.0313C23.6643 45.0323 23.3398 45.0327 23.0152 45.0326C22.6009 45.0326 22.1866 45.035 21.7723 45.038C21.4522 45.0399 21.1321 45.0403 20.812 45.0402C20.6594 45.0404 20.5067 45.0412 20.354 45.0425C18.8339 45.0549 18.8339 45.0549 18.1934 44.6484C18.1364 44.6152 18.0795 44.5819 18.0208 44.5477C17.4178 44.1835 17.0542 43.5581 16.875 42.8906C16.8496 42.5899 16.8507 42.2902 16.8517 41.9886C16.8511 41.8525 16.8511 41.8525 16.8505 41.7138C16.8495 41.41 16.8496 41.1062 16.8498 40.8024C16.8492 40.5845 16.8486 40.3666 16.8479 40.1487C16.8466 39.6794 16.8458 39.2101 16.8455 38.7408C16.845 38.0608 16.8434 37.3809 16.8414 36.7009C16.8383 35.5957 16.8358 34.4905 16.8338 33.3853C16.8337 33.3192 16.8336 33.2531 16.8335 33.185C16.8327 32.716 16.8319 32.247 16.8311 31.778C16.8301 31.2436 16.8292 30.7092 16.8283 30.1748C16.8281 30.0761 16.8281 30.0761 16.8279 29.9754C16.8259 28.8753 16.8233 27.7751 16.8201 26.675C16.8182 25.9975 16.817 25.32 16.8165 24.6425C16.816 24.122 16.8147 23.6016 16.8131 23.0812C16.8126 22.8687 16.8124 22.6563 16.8125 22.4438C16.8133 20.2605 16.715 18.3071 15.1 16.6546C14.7614 16.316 14.4232 15.9828 14.0491 15.6833C12.1781 14.0793 11.4533 11.2313 11.25 8.87695C11.25 8.73193 11.25 8.58691 11.25 8.4375ZM20.3906 20.6543C19.8124 21.4232 19.6914 22.1632 19.7754 23.1152C19.9549 23.869 20.3615 24.4335 21.0059 24.8566C21.7231 25.2944 22.5579 25.3573 23.3689 25.1642C24.147 24.8782 24.684 24.3858 25.0488 23.6426C25.3281 22.9332 25.3459 22.1256 25.0818 21.4069C24.7249 20.6457 24.1732 20.16 23.394 19.8533C22.2987 19.5471 21.1565 19.8025 20.3906 20.6543Z" fill="#B3B3B3"/>
<path d="M14.1115 -0.023203C14.2233 -0.0238003 14.2233 -0.0238003 14.3374 -0.0244098C14.5865 -0.0255203 14.8357 -0.0253787 15.0849 -0.0252334C15.2638 -0.0257595 15.4427 -0.0263577 15.6216 -0.0270224C16.1071 -0.0285747 16.5927 -0.0289873 17.0783 -0.0290994C17.3818 -0.0292244 17.6853 -0.0295998 17.9888 -0.0300657C19.048 -0.0316918 20.1071 -0.0324098 21.1663 -0.0322715C22.153 -0.0321659 23.1397 -0.0340206 24.1264 -0.0367968C24.9741 -0.0390965 25.8217 -0.0400382 26.6694 -0.0399258C27.1754 -0.0398811 27.6815 -0.0403802 28.1875 -0.0422423C28.6636 -0.0439463 29.1396 -0.0439564 29.6157 -0.0426788C29.7901 -0.0424953 29.9645 -0.0429087 30.1389 -0.0439727C30.3777 -0.0453343 30.6163 -0.0445104 30.855 -0.0431586C30.9235 -0.0440628 30.992 -0.0449669 31.0625 -0.0458984C31.7944 -0.0367868 32.5144 0.286878 33.0469 0.791317C34.2209 2.25213 33.75 3.52143 33.75 5.6253C26.325 5.6253 18.9 5.6253 11.25 5.6253C11.25 1.53839 11.25 1.53839 12.041 0.703426C12.6925 0.179806 13.2733 -0.0265071 14.1115 -0.023203Z" fill="#B3B3B3"/>
</g>
<defs>
<clipPath id="clip0_1609_9913">
<rect width="45" height="45" fill="white"/>
</clipPath>
</defs>
</svg>
