<svg width="45" height="45" viewBox="0 0 45 45" fill="none" xmlns="http://www.w3.org/2000/svg">
<g clip-path="url(#clip0_1609_9910)">
<path d="M6.18194 -0.0227221C6.3284 -0.0229878 6.47485 -0.0233297 6.62131 -0.023741C7.0225 -0.0246434 7.42369 -0.024453 7.82488 -0.0240766C8.25805 -0.0238596 8.69122 -0.0246523 9.1244 -0.0253104C9.97253 -0.0264304 10.8207 -0.0265884 11.6688 -0.0263826C12.3583 -0.0262259 13.0477 -0.0263798 13.7371 -0.0267539C13.8353 -0.0268062 13.9335 -0.0268586 14.0346 -0.0269125C14.234 -0.027019 14.4334 -0.0271257 14.6329 -0.0272326C16.5026 -0.0281883 18.3724 -0.0279984 20.2421 -0.0274624C21.9521 -0.0270081 23.6622 -0.0279974 25.3722 -0.0296683C27.1286 -0.0313715 28.8851 -0.0320971 30.6416 -0.0317669C31.6274 -0.0315988 32.6133 -0.0318175 33.5992 -0.0330601C34.4384 -0.0341073 35.2777 -0.0342307 36.117 -0.0331665C36.545 -0.0326489 36.973 -0.0325522 37.4011 -0.0336061C37.7933 -0.0345605 38.1855 -0.0342878 38.5776 -0.0330558C38.7192 -0.0328232 38.8607 -0.0330311 39.0022 -0.0337357C40.647 -0.0413526 42.1283 0.407151 43.3329 1.56424C44.6402 2.88584 45.0268 4.37975 45.0221 6.18292C45.0224 6.32937 45.0227 6.47583 45.0231 6.62228C45.024 7.02348 45.0239 7.42466 45.0235 7.82586C45.0233 8.25903 45.0241 8.6922 45.0247 9.12537C45.0258 9.97351 45.026 10.8216 45.0258 11.6698C45.0256 12.3592 45.0258 13.0487 45.0262 13.7381C45.0262 13.8363 45.0263 13.9344 45.0263 14.0356C45.0264 14.235 45.0265 14.4344 45.0266 14.6338C45.0276 16.5036 45.0274 18.3733 45.0269 20.2431C45.0264 21.9531 45.0274 23.6631 45.0291 25.3732C45.0308 27.1296 45.0315 28.8861 45.0312 30.6425C45.031 31.6284 45.0312 32.6143 45.0325 33.6002C45.0335 34.4394 45.0336 35.2787 45.0326 36.1179C45.0321 36.546 45.032 36.974 45.033 37.4021C45.034 37.7943 45.0337 38.1864 45.0325 38.5786C45.0322 38.7201 45.0324 38.8617 45.0331 39.0032C45.0408 40.6479 44.5923 42.1293 43.4352 43.3339C42.1136 44.6412 40.6197 45.0277 38.8165 45.0231C38.67 45.0234 38.5236 45.0237 38.3771 45.0241C37.9759 45.025 37.5747 45.0248 37.1735 45.0245C36.7404 45.0242 36.3072 45.025 35.874 45.0257C35.0259 45.0268 34.1778 45.027 33.3296 45.0268C32.6402 45.0266 31.9507 45.0268 31.2613 45.0271C31.1631 45.0272 31.065 45.0272 30.9638 45.0273C30.7644 45.0274 30.565 45.0275 30.3656 45.0276C28.4958 45.0286 26.6261 45.0284 24.7563 45.0278C23.0463 45.0274 21.3363 45.0284 19.6263 45.03C17.8698 45.0317 16.1133 45.0325 14.3569 45.0322C13.371 45.032 12.3851 45.0322 11.3993 45.0334C10.56 45.0345 9.72073 45.0346 8.88147 45.0335C8.45342 45.033 8.02539 45.0329 7.59734 45.034C7.20515 45.0349 6.81298 45.0347 6.42078 45.0334C6.27926 45.0332 6.13773 45.0334 5.9962 45.0341C4.35146 45.0417 2.87013 44.5932 1.66551 43.4361C0.358188 42.1145 -0.0283355 40.6206 -0.0236984 38.8175C-0.0239641 38.671 -0.0243057 38.5246 -0.0247169 38.3781C-0.0256194 37.9769 -0.0254292 37.5757 -0.0250529 37.1745C-0.0248358 36.7414 -0.0256286 36.3082 -0.0262867 35.875C-0.0274067 35.0269 -0.0275647 34.1787 -0.0273589 33.3306C-0.0272021 32.6412 -0.0273563 31.9517 -0.0277304 31.2623C-0.0277827 31.1641 -0.0278348 31.0659 -0.0278886 30.9648C-0.0279952 30.7654 -0.0281023 30.566 -0.0282092 30.3665C-0.0291649 28.4968 -0.0289745 26.627 -0.0284385 24.7573C-0.0279842 23.0473 -0.0289737 21.3372 -0.0306446 19.6272C-0.0323477 17.8708 -0.0330737 16.1143 -0.0327434 14.3579C-0.0325754 13.372 -0.0327937 12.3861 -0.0340363 11.4002C-0.0350834 10.561 -0.0352071 9.72171 -0.0341429 8.88244C-0.0336253 8.4544 -0.0335289 8.02636 -0.0345828 7.59832C-0.0355372 7.20613 -0.0352642 6.81395 -0.0340322 6.42176C-0.0337996 6.28023 -0.0340076 6.1387 -0.0347122 5.99718C-0.0423291 4.35243 0.406174 2.87111 1.56326 1.66649C2.88487 0.359165 4.37877 -0.0273592 6.18194 -0.0227221ZM3.56428 3.56525C3.49732 3.63063 3.43036 3.696 3.36137 3.76335C2.82177 4.52553 2.65882 5.27991 2.67098 6.19899C2.6706 6.30469 2.67023 6.41039 2.66984 6.51929C2.66925 6.80957 2.6706 7.09972 2.67282 7.38998C2.67473 7.70414 2.67407 8.0183 2.67374 8.33246C2.67351 8.87573 2.67488 9.41898 2.67736 9.96224C2.68094 10.7477 2.68208 11.5331 2.68263 12.3186C2.68359 13.5932 2.68651 14.8677 2.69067 16.1423C2.69471 17.3798 2.69782 18.6174 2.69968 19.855C2.6998 19.9314 2.69991 20.0077 2.70003 20.0864C2.70061 20.4696 2.70116 20.8529 2.70171 21.2361C2.70626 24.4114 2.71399 27.5866 2.72382 30.7619C2.83495 30.6792 2.94598 30.5964 3.05698 30.5136C3.11882 30.4675 3.18066 30.4214 3.24437 30.3739C3.5082 30.1726 3.75898 29.958 4.00922 29.7402C4.11622 29.6478 4.22323 29.5555 4.33023 29.4631C4.41127 29.393 4.41127 29.393 4.49395 29.3214C4.75852 29.0924 5.02369 28.8641 5.28913 28.6361C5.34027 28.5921 5.39141 28.5482 5.4441 28.5029C5.75682 28.235 6.07326 27.9724 6.39326 27.7132C6.70165 27.463 7.00046 27.206 7.29414 26.9387C7.66848 26.598 8.05449 26.2756 8.44804 25.9575C8.62587 25.8128 8.80224 25.6672 8.97745 25.5194C9.0238 25.4803 9.07015 25.4413 9.11791 25.4011C9.24769 25.2916 9.37728 25.1818 9.50685 25.072C10.3354 24.4085 11.2386 24.0832 12.3039 24.1701C13.5435 24.3672 14.3288 25.0168 15.2393 25.8249C15.555 26.105 15.8818 26.3682 16.2133 26.6293C16.4799 26.843 16.7403 27.0634 17.0006 27.2847C17.0972 27.3667 17.194 27.4486 17.2907 27.5306C17.4334 27.6515 17.576 27.7725 17.7182 27.894C17.8502 28.0064 17.9829 28.118 18.1157 28.2296C18.192 28.2943 18.2684 28.3589 18.3471 28.4256C18.5398 28.59 18.5398 28.59 18.8078 28.5646C18.981 28.4162 19.1383 28.267 19.2974 28.1044C19.3469 28.0549 19.3964 28.0054 19.4474 27.9543C19.614 27.7874 19.7796 27.6195 19.9453 27.4516C20.0642 27.332 20.1831 27.2125 20.3022 27.093C20.5589 26.8351 20.8153 26.5769 21.0713 26.3183C21.4766 25.909 21.8829 25.5009 22.2893 25.0928C23.2994 24.0787 24.3081 23.0632 25.3164 22.0473C26.0989 21.2589 26.8818 20.4709 27.6659 19.6842C28.0696 19.2791 28.4724 18.8731 28.8747 18.4666C29.1259 18.2129 29.3779 17.9601 29.6301 17.7074C29.7464 17.5906 29.8624 17.4734 29.9781 17.356C30.9921 16.3269 31.8987 15.5929 33.4162 15.5486C34.5686 15.6078 35.4005 16.1061 36.1662 16.9411C36.4757 17.2959 36.773 17.6592 37.0647 18.0288C37.3101 18.3385 37.5592 18.6451 37.8087 18.9516C37.8575 19.0116 37.9063 19.0716 37.9565 19.1334C38.0569 19.2568 38.1572 19.3801 38.2575 19.5034C38.5455 19.8575 38.8333 20.2118 39.121 20.5661C39.361 20.8615 39.6012 21.1568 39.8418 21.4517C40.3043 22.019 40.7638 22.5881 41.2144 23.1649C41.5291 23.5673 41.8439 23.967 42.1867 24.3459C42.2157 24.3459 42.2447 24.3459 42.2746 24.3459C42.2849 21.8545 42.2926 19.3631 42.2974 16.8716C42.2996 15.7148 42.3027 14.5579 42.3078 13.4011C42.3121 12.3925 42.315 11.384 42.316 10.3754C42.3165 9.84162 42.3179 9.30783 42.3211 8.77402C42.3241 8.27106 42.325 7.76813 42.3243 7.26516C42.3244 7.08107 42.3253 6.89698 42.327 6.7129C42.3368 5.58841 42.3085 4.71181 41.6371 3.76335C41.5366 3.66529 41.5366 3.66529 41.4342 3.56525C41.3361 3.46482 41.3361 3.46482 41.2361 3.36235C40.3636 2.7447 39.4976 2.66097 38.4605 2.669C38.3168 2.66849 38.1731 2.66779 38.0293 2.66692C37.6369 2.66509 37.2445 2.66599 36.8521 2.66735C36.4279 2.66835 36.0038 2.66681 35.5796 2.6656C34.7496 2.66365 33.9196 2.66407 33.0896 2.66535C32.4149 2.66634 31.7402 2.66647 31.0654 2.66599C30.9693 2.66593 30.8731 2.66586 30.7741 2.66579C30.5787 2.66565 30.3834 2.66551 30.1881 2.66536C28.3577 2.66411 26.5273 2.66555 24.697 2.66791C23.1275 2.66987 21.5581 2.66953 19.9887 2.66751C18.1647 2.66515 16.3408 2.66423 14.5168 2.66558C14.3222 2.66572 14.1276 2.66586 13.933 2.66599C13.8372 2.66606 13.7415 2.66613 13.6429 2.6662C12.9692 2.66658 12.2955 2.66594 11.6218 2.6649C10.8005 2.66367 9.97916 2.66401 9.15782 2.66635C8.73901 2.6675 8.32024 2.66796 7.90143 2.6665C7.51758 2.66518 7.13378 2.66592 6.74993 2.66825C6.61155 2.66874 6.47316 2.6685 6.33477 2.66742C5.30121 2.66004 4.32127 2.7899 3.56428 3.56525ZM32.6945 18.4572C32.4039 18.6987 32.1411 18.9653 31.876 19.2344C31.7964 19.3139 31.7167 19.3934 31.6346 19.4753C31.417 19.6924 31.2004 19.9106 30.9841 20.1291C30.7568 20.3583 30.5284 20.5866 30.3002 20.815C29.9169 21.1989 29.5343 21.5833 29.1521 21.9683C28.6632 22.4607 28.1733 22.9522 27.683 23.4433C27.2598 23.8673 26.8369 24.2916 26.4142 24.7161C26.3239 24.8068 26.2335 24.8974 26.1432 24.9881C25.8456 25.2867 25.5483 25.5857 25.2513 25.8849C25.1402 25.9964 25.1402 25.9964 25.0268 26.1101C24.6551 26.4852 24.2973 26.867 23.9527 27.2671C23.7708 27.4757 23.5788 27.6727 23.3836 27.8688C23.3041 27.9489 23.2246 28.0289 23.1427 28.1114C23.058 28.1962 22.9733 28.281 22.8885 28.3659C22.7998 28.4549 22.7111 28.5439 22.6224 28.6329C22.4377 28.8181 22.2529 29.0031 22.068 29.188C21.8316 29.4243 21.5958 29.6613 21.3602 29.8984C21.1778 30.0818 20.9949 30.2649 20.8119 30.4478C20.7248 30.535 20.6378 30.6224 20.551 30.7099C20.4297 30.8321 20.3078 30.9536 20.1859 31.0751C20.1169 31.1442 20.0479 31.2134 19.9768 31.2846C19.5712 31.6466 19.1833 31.8327 18.632 31.8166C18.0653 31.6518 17.7101 31.4063 17.2807 31.0091C17.165 30.9054 17.0492 30.8018 16.9333 30.6984C16.8778 30.6485 16.8223 30.5987 16.7652 30.5473C16.569 30.3736 16.3661 30.2097 16.1601 30.0478C15.7718 29.7419 15.3949 29.4242 15.0185 29.104C14.6401 28.7824 14.257 28.4673 13.8708 28.1551C13.6873 28.0032 13.5079 27.8495 13.3298 27.6916C13.2797 27.6477 13.2297 27.6039 13.1782 27.5587C13.0816 27.4738 12.9858 27.3882 12.8908 27.3016C12.5669 27.0184 12.2918 26.8677 11.8644 26.8068C11.4236 26.957 11.103 27.249 10.7603 27.5539C10.6513 27.6492 10.5422 27.7444 10.4331 27.8395C10.3785 27.8875 10.3239 27.9354 10.2676 27.9848C10.0259 28.1956 9.78074 28.4021 9.53535 28.6086C9.13424 28.9469 8.73558 29.288 8.33784 29.6303C7.98089 29.9373 7.62151 30.2402 7.25568 30.5367C6.69771 30.9899 6.15763 31.4632 5.6155 31.9352C4.94503 32.5175 4.26873 33.0931 3.59174 33.6678C3.54494 33.7076 3.49813 33.7475 3.44991 33.7885C3.09116 34.0924 3.09116 34.0924 2.88747 34.2135C2.70165 34.356 2.70165 34.356 2.67859 34.6002C2.67804 34.6948 2.6775 34.7894 2.67694 34.8869C2.67555 34.9943 2.67415 35.1018 2.67272 35.2125C2.67306 35.3301 2.6735 35.4477 2.67404 35.5653C2.67358 35.6866 2.67303 35.8078 2.67239 35.9291C2.67148 36.1838 2.67188 36.4384 2.67316 36.6931C2.67466 37.0167 2.67262 37.3401 2.66952 37.6637C2.66757 37.9146 2.66772 38.1655 2.66844 38.4164C2.66855 38.5928 2.66681 38.7692 2.66502 38.9456C2.67373 39.8155 2.85464 40.5213 3.36137 41.237C3.46181 41.3351 3.46181 41.3351 3.56428 41.4351C3.66234 41.5356 3.66234 41.5356 3.76237 41.638C4.63479 42.2557 5.50086 42.3394 6.53792 42.3314C6.68165 42.3319 6.82537 42.3326 6.96909 42.3335C7.36151 42.3353 7.75389 42.3344 8.14632 42.333C8.5705 42.332 8.99468 42.3336 9.41886 42.3348C10.2488 42.3367 11.0788 42.3363 11.9088 42.335C12.5835 42.334 13.2583 42.3339 13.933 42.3344C14.0772 42.3345 14.0772 42.3345 14.2243 42.3346C14.4197 42.3347 14.615 42.3349 14.8104 42.335C16.6407 42.3363 18.4711 42.3348 20.3014 42.3325C21.8709 42.3305 23.4403 42.3308 25.0098 42.3329C26.8337 42.3352 28.6577 42.3362 30.4816 42.3348C30.6762 42.3347 30.8708 42.3345 31.0654 42.3344C31.1612 42.3343 31.2569 42.3343 31.3556 42.3342C32.0293 42.3338 32.7029 42.3344 33.3766 42.3355C34.1979 42.3367 35.0193 42.3364 35.8406 42.334C36.2594 42.3329 36.6782 42.3324 37.097 42.3339C37.4809 42.3352 37.8646 42.3345 38.2485 42.3321C38.3869 42.3316 38.5253 42.3319 38.6637 42.333C39.6322 42.3399 40.4299 42.2088 41.2361 41.638C41.3341 41.5376 41.3341 41.5376 41.4342 41.4351C41.5011 41.3698 41.5681 41.3044 41.6371 41.237C42.1809 40.4689 42.3404 39.702 42.3398 38.7763C42.3423 38.6155 42.3423 38.6155 42.3447 38.4515C42.3485 38.1607 42.3504 37.8701 42.351 37.5793C42.3515 37.3969 42.3526 37.2145 42.3539 37.0321C42.3585 36.3936 42.3608 35.7552 42.3609 35.1168C42.361 34.5249 42.3664 33.9332 42.3743 33.3413C42.3808 32.8302 42.3835 32.3192 42.3834 31.808C42.3834 31.504 42.3849 31.2002 42.3903 30.8962C42.4678 29.3544 42.4678 29.3544 41.8008 28.0324C41.6421 27.8782 41.4784 27.7394 41.3078 27.5978C41.2168 27.4913 41.1284 27.3824 41.0452 27.2696C40.5679 26.6504 40.0776 26.0435 39.5794 25.441C39.0858 24.844 38.5972 24.2431 38.1094 23.6414C37.9196 23.4074 37.7296 23.1736 37.5396 22.9398C37.4445 22.8227 37.3493 22.7056 37.2542 22.5884C37.0143 22.293 36.7742 21.9978 36.5336 21.703C36.0784 21.1448 35.6263 20.5849 35.1829 20.0173C35.066 19.8685 34.949 19.7199 34.8318 19.5713C34.7534 19.4715 34.6753 19.3715 34.5975 19.2712C34.4825 19.1235 34.366 18.977 34.2491 18.8308C34.1824 18.746 34.1156 18.6613 34.0469 18.574C33.5941 18.1323 33.2165 18.1404 32.6945 18.4572Z" fill="#B3B3B3"/>
<path d="M17.8004 6.57164C17.9944 6.72033 18.1818 6.87461 18.369 7.03169C18.456 7.09514 18.543 7.15859 18.6326 7.22396C19.6798 8.12031 20.4092 9.63342 20.5662 10.9868C20.7034 12.9126 20.3539 14.6528 19.0683 16.1572C19.0116 16.2202 18.9548 16.2832 18.8963 16.3481C18.8477 16.4038 18.7991 16.4596 18.749 16.517C17.6655 17.6859 16.0646 18.2716 14.5097 18.3974C12.6959 18.4528 10.9966 17.8389 9.65955 16.6042C8.45344 15.4274 7.74484 13.8183 7.71296 12.1339C7.70534 10.1945 8.36915 8.64699 9.68976 7.22945C11.8285 5.1763 15.3655 4.87323 17.8004 6.57164ZM11.2636 9.60421C10.5536 10.6257 10.3574 11.6107 10.5467 12.8325C10.7979 13.8128 11.4757 14.6265 12.3289 15.1533C13.1846 15.6184 14.0727 15.7457 15.0291 15.5571C16.1753 15.2011 16.9543 14.5903 17.512 13.5301C17.9287 12.6291 18.0041 11.6128 17.6682 10.6671C17.2045 9.60032 16.497 8.8792 15.4198 8.42696C13.9293 7.89361 12.26 8.3776 11.2636 9.60421Z" fill="#B3B3B3"/>
</g>
<defs>
<clipPath id="clip0_1609_9910">
<rect width="45" height="45" fill="white"/>
</clipPath>
</defs>
</svg>
