<svg width="30" height="30" viewBox="0 0 30 30" fill="none" xmlns="http://www.w3.org/2000/svg">
<g id="info 1">
<path id="Vector" d="M24.3709 5.28463C26.8586 7.63251 28.3555 10.9972 28.4826 14.4119C28.5519 17.9402 27.4597 21.3207 25.0777 23.965C25.0494 23.9968 25.0212 24.0286 24.9921 24.0613C24.3794 24.7493 23.7158 25.3581 22.9683 25.8986C22.931 25.9257 22.8936 25.9527 22.8551 25.9806C20.954 27.3389 18.7796 28.1462 16.4644 28.4182C16.4009 28.4259 16.3373 28.4336 16.2719 28.4415C14.4078 28.6233 12.4271 28.4076 10.6636 27.7736C10.5968 27.7507 10.5968 27.7507 10.5287 27.7273C8.85521 27.1507 7.34897 26.2622 6.0347 25.0783C6.00294 25.0501 5.97118 25.0219 5.93845 24.9928C3.29243 22.6365 1.74878 19.2858 1.52298 15.7619C1.36347 12.0053 2.65207 8.51021 5.17856 5.74249C7.36284 3.38776 10.3571 1.95555 13.5347 1.58224C13.5982 1.57453 13.6617 1.56683 13.7272 1.55889C17.6798 1.17353 21.4883 2.61076 24.3709 5.28463ZM6.47415 7.19259C6.40521 7.27512 6.33694 7.35821 6.26907 7.44161C6.21559 7.50539 6.16211 7.56918 6.10863 7.63296C5.68254 8.14707 5.31562 8.68112 4.98001 9.25802C4.95949 9.2927 4.93898 9.32738 4.91784 9.3631C3.40546 11.943 3.09242 15.1136 3.82685 17.9862C4.42283 20.1542 5.67953 22.2992 7.44095 23.7307C7.50124 23.782 7.56151 23.8333 7.62176 23.8847C8.50241 24.6239 9.48697 25.2188 10.5464 25.6643C10.5831 25.68 10.6198 25.6957 10.6575 25.712C13.3828 26.866 16.5486 26.8148 19.2805 25.7302C20.9545 25.043 22.5789 23.9751 23.73 22.5588C23.7813 22.4985 23.8327 22.4382 23.884 22.378C24.6233 21.4973 25.2182 20.5128 25.6636 19.4533C25.6793 19.4167 25.6951 19.38 25.7113 19.3422C26.8638 16.6205 26.815 13.456 25.7332 10.7265C25.0411 9.04231 23.9826 7.4289 22.5581 6.26974C22.4944 6.21626 22.4306 6.16277 22.3668 6.10929C21.8528 5.68329 21.3196 5.31447 20.7417 4.98067C20.7026 4.95795 20.6635 4.93522 20.6233 4.91181C16.0815 2.30482 9.97155 3.27923 6.47415 7.19259Z" fill="#0066AE"/>
<path id="Vector_2" d="M15.421 12.8392C15.6486 12.9909 15.8135 13.1701 15.9374 13.4178C15.9435 13.5253 15.9458 13.6329 15.9464 13.7406C15.9469 13.8092 15.9474 13.8777 15.9479 13.9484C15.9482 14.0241 15.9484 14.0997 15.9487 14.1776C15.9491 14.2578 15.9496 14.338 15.9501 14.4181C15.9517 14.6818 15.9526 14.9456 15.9534 15.2093C15.9537 15.3001 15.954 15.3908 15.9543 15.4816C15.9556 15.8594 15.9567 16.2371 15.9574 16.6148C15.9583 17.1561 15.9602 17.6973 15.9636 18.2385C15.9659 18.619 15.967 18.9996 15.9673 19.3802C15.9675 19.6075 15.9682 19.8347 15.9701 20.062C15.9719 20.2759 15.9723 20.4899 15.9716 20.7039C15.9716 20.8195 15.973 20.935 15.9745 21.0506C15.9715 21.4771 15.9424 21.7174 15.6444 22.0311C15.3935 22.212 15.1577 22.2409 14.8554 22.2314C14.6102 22.1909 14.4189 22.083 14.2381 21.9139C14.0824 21.6941 14.0403 21.5447 14.0396 21.2766C14.0388 21.1733 14.0388 21.1733 14.0379 21.0678C14.0382 20.9927 14.0384 20.9176 14.0387 20.8402C14.0384 20.7599 14.0379 20.6797 14.0375 20.5994C14.0364 20.3817 14.0365 20.164 14.0368 19.9464C14.037 19.7645 14.0366 19.5826 14.0363 19.4008C14.0355 18.9716 14.0356 18.5425 14.0362 18.1134C14.0369 17.671 14.0361 17.2287 14.0345 16.7863C14.0332 16.4061 14.0328 16.026 14.0332 15.6459C14.0334 15.419 14.0332 15.1921 14.0322 14.9652C14.0313 14.7518 14.0315 14.5384 14.0326 14.325C14.033 14.2097 14.0321 14.0943 14.0312 13.9789C14.0365 13.3479 14.0365 13.3479 14.2967 13.0662C14.6376 12.7586 14.9877 12.6862 15.421 12.8392Z" fill="#0066AE"/>
<path id="Vector_3" d="M15.6121 8.82547C15.9436 9.0222 16.1405 9.30249 16.2598 9.66386C16.3511 10.0355 16.2978 10.319 16.1337 10.6572C15.9635 10.9257 15.7063 11.1334 15.4106 11.2498C14.9781 11.3004 14.5737 11.3158 14.2161 11.044C13.8931 10.746 13.734 10.4791 13.6895 10.034C13.7007 9.68765 13.814 9.35083 14.0424 9.08777C14.4764 8.69921 15.0673 8.57693 15.6121 8.82547Z" fill="#0066AE"/>
</g>
</svg>
