<svg width="12" height="12" viewBox="0 0 12 12" fill="none" xmlns="http://www.w3.org/2000/svg">
<g clip-path="url(#clip0_4022_14990)">
<path d="M6.12388 -0.0148576C6.16066 -0.0151318 6.16066 -0.0151318 6.19818 -0.0154116C6.28046 -0.0158796 6.36273 -0.0155085 6.44502 -0.0151402C6.50396 -0.0152989 6.5629 -0.0155076 6.62183 -0.0157624C6.76538 -0.0162418 6.90892 -0.0161709 7.05246 -0.0158313C7.16912 -0.0155666 7.28578 -0.0155307 7.40244 -0.0156583C7.42734 -0.0156852 7.42734 -0.0156852 7.45275 -0.0157127C7.48648 -0.0157501 7.5202 -0.0157881 7.55393 -0.0158267C7.87021 -0.0161608 8.18648 -0.0157766 8.50275 -0.0151469C8.77414 -0.0146234 9.04552 -0.0147143 9.31691 -0.0152546C9.63205 -0.0158817 9.94719 -0.0161286 10.2623 -0.0157688C10.2959 -0.0157315 10.3295 -0.0156946 10.3631 -0.0156583C10.3879 -0.0156311 10.3879 -0.0156311 10.4132 -0.0156035C10.5298 -0.0155023 10.6463 -0.0156731 10.7628 -0.0159488C10.9196 -0.0163118 11.0764 -0.0160535 11.2333 -0.0153753C11.2909 -0.0152201 11.3485 -0.0152653 11.4061 -0.0155233C11.4847 -0.0158425 11.5632 -0.0154431 11.6417 -0.0148576C11.6761 -0.0152497 11.6761 -0.0152497 11.7112 -0.0156498C11.7322 -0.0153442 11.7533 -0.0150386 11.775 -0.0147237C11.7931 -0.0147047 11.8112 -0.0146857 11.8299 -0.0146661C11.914 0.00867761 11.9479 0.0481283 12 0.117211C12.0115 0.187644 12.0158 0.244724 12.0147 0.315051C12.0149 0.335016 12.0151 0.354981 12.0152 0.375551C12.0157 0.442772 12.0153 0.509962 12.0149 0.577183C12.015 0.625732 12.0152 0.67428 12.0154 0.722829C12.0159 0.856487 12.0157 0.990137 12.0153 1.1238C12.015 1.26784 12.0154 1.41189 12.0158 1.55593C12.0163 1.82189 12.0162 2.08784 12.0159 2.3538C12.0156 2.59948 12.0155 2.84516 12.0157 3.09084C12.0157 3.11527 12.0157 3.11527 12.0157 3.1402C12.0157 3.20631 12.0158 3.27241 12.0158 3.33852C12.0162 3.95888 12.0158 4.57923 12.0152 5.19958C12.0146 5.75093 12.0147 6.30227 12.0153 6.85362C12.0159 7.47282 12.0161 8.09203 12.0158 8.71124C12.0157 8.77722 12.0157 8.84321 12.0157 8.9092C12.0156 8.92545 12.0156 8.9417 12.0156 8.95844C12.0155 9.20399 12.0157 9.44953 12.016 9.69508C12.0163 9.97424 12.0162 10.2534 12.0156 10.5325C12.0153 10.6751 12.0151 10.8176 12.0155 10.9601C12.0159 11.0904 12.0157 11.2208 12.0151 11.3511C12.0149 11.3984 12.015 11.4456 12.0153 11.4929C12.0156 11.5569 12.0153 11.6209 12.0147 11.685C12.015 11.7035 12.0153 11.7221 12.0156 11.7412C12.014 11.8325 12.0032 11.8785 11.9486 11.9529C11.8751 12.0056 11.8424 12.0147 11.7531 12.0147C11.7272 12.015 11.7012 12.0153 11.6745 12.0156C11.6461 12.0153 11.6178 12.015 11.5885 12.0147C11.5432 12.015 11.5432 12.015 11.4969 12.0153C11.413 12.0157 11.3291 12.0154 11.2452 12.015C11.1547 12.0147 11.0642 12.015 10.9737 12.0153C10.7963 12.0158 10.619 12.0156 10.4416 12.0151C10.2974 12.0148 10.1532 12.0147 10.009 12.0148C9.98847 12.0148 9.96794 12.0148 9.9468 12.0148C9.9051 12.0148 9.86341 12.0149 9.82172 12.0149C9.45284 12.0151 9.08397 12.0147 8.71509 12.014C8.35746 12.0133 7.99983 12.0132 7.64219 12.0135C7.25267 12.0139 6.86315 12.014 6.47363 12.0136C6.43204 12.0136 6.39045 12.0135 6.34886 12.0135C6.31816 12.0134 6.31816 12.0134 6.28685 12.0134C6.14297 12.0133 5.99909 12.0134 5.85521 12.0135C5.67962 12.0137 5.50404 12.0135 5.32846 12.0129C5.23895 12.0127 5.14944 12.0125 5.05993 12.0128C4.96268 12.0131 4.86544 12.0126 4.7682 12.0121C4.74019 12.0123 4.71218 12.0125 4.68332 12.0127C4.25162 12.0084 3.95555 11.7956 3.65623 11.5078C3.64798 11.5248 3.63973 11.5418 3.63123 11.5593C3.51471 11.7875 3.38677 11.9195 3.1406 12C3.05357 12.0128 2.96801 12.0133 2.88015 12.0129C2.84238 12.0133 2.84238 12.0133 2.80384 12.0136C2.72111 12.0143 2.6384 12.0142 2.55567 12.0141C2.49779 12.0143 2.43992 12.0145 2.38204 12.0147C2.2609 12.0151 2.13976 12.0151 2.01862 12.0148C1.86392 12.0146 1.70924 12.0153 1.55455 12.0164C1.43505 12.0171 1.31555 12.0172 1.19605 12.017C1.13904 12.017 1.08204 12.0173 1.02503 12.0178C0.423163 12.0221 0.423163 12.0221 0.190211 11.8214C-0.0142088 11.6078 -0.0138154 11.358 -0.0128973 11.0798C-0.0131013 11.0389 -0.0133443 10.998 -0.0136232 10.9571C-0.0142487 10.8464 -0.0142786 10.7358 -0.0141597 10.6251C-0.0141094 10.5325 -0.0143382 10.4399 -0.0145624 10.3473C-0.0150817 10.1287 -0.0151037 9.91011 -0.0148199 9.6915C-0.0145369 9.46652 -0.0151138 9.24154 -0.0161123 9.01656C-0.0169399 8.82292 -0.0172188 8.62929 -0.0170665 8.43565C-0.0169818 8.3202 -0.0171028 8.20477 -0.0177567 8.08933C-0.0183491 7.98069 -0.0182526 7.87207 -0.0176437 7.76343C-0.0175334 7.72375 -0.0176587 7.68407 -0.0180478 7.64439C-0.0203877 7.38709 0.00486964 7.16783 0.178649 6.96299C0.351103 6.80101 0.546201 6.75944 0.776053 6.76059C0.801235 6.76035 0.826417 6.76011 0.852362 6.75986C0.935091 6.75921 1.0178 6.75925 1.10053 6.75936C1.15841 6.75918 1.21629 6.75898 1.27417 6.75875C1.39531 6.7584 1.51644 6.75842 1.63759 6.75866C1.79229 6.75894 1.94696 6.75814 2.10166 6.75705C2.22116 6.75636 2.34065 6.75632 2.46015 6.75647C2.51716 6.75644 2.57417 6.7562 2.63117 6.75573C3.25547 6.75118 3.25546 6.75118 3.49802 6.98147C3.51156 6.9979 3.52509 7.01434 3.53904 7.03127C3.6623 6.91291 3.78498 6.79397 3.90696 6.67428C3.96362 6.61872 4.02046 6.56337 4.07776 6.50846C4.1436 6.44519 4.20872 6.38126 4.27375 6.31716C4.30469 6.28785 4.30469 6.28785 4.33626 6.25795C4.35503 6.2392 4.3738 6.22044 4.39314 6.20112C4.40985 6.18488 4.42655 6.16864 4.44377 6.15191C4.51216 6.03058 4.44631 5.8683 4.41241 5.741C4.4083 5.72546 4.4042 5.70991 4.39997 5.6939C4.38631 5.64225 4.37247 5.59065 4.35862 5.53906C4.34868 5.50165 4.33874 5.46424 4.32882 5.42683C4.30741 5.34621 4.28591 5.26562 4.26436 5.18503C4.23591 5.07865 4.2076 4.97223 4.17935 4.8658C4.05208 4.38646 3.92323 3.90758 3.79278 3.4291C3.75193 3.27912 3.71122 3.12911 3.6705 2.9791C3.63096 2.83356 3.59113 2.6881 3.55108 2.5427C3.52612 2.45183 3.50141 2.36088 3.47678 2.26992C3.46526 2.2276 3.45363 2.18531 3.44188 2.14306C3.42579 2.08516 3.41009 2.02716 3.39448 1.96912C3.38735 1.94401 3.38735 1.94401 3.38008 1.91839C3.34503 1.78542 3.34381 1.675 3.40984 1.55257C3.4934 1.478 3.57716 1.45922 3.68443 1.43264C3.70624 1.42686 3.72805 1.42108 3.75052 1.41513C3.82251 1.39615 3.89463 1.37778 3.96677 1.3594C4.01684 1.34631 4.06689 1.33319 4.11693 1.32001C4.22183 1.29243 4.32677 1.26505 4.43175 1.23778C4.59377 1.19552 4.75538 1.15182 4.91691 1.10772C4.94282 1.10065 4.96872 1.09358 4.99542 1.0863C5.09646 1.05871 5.19749 1.03109 5.29853 1.00347C5.3682 0.984451 5.4379 0.965509 5.50761 0.946587C5.5284 0.940889 5.5492 0.935192 5.57063 0.929322C5.71338 0.890648 5.71338 0.890648 5.7656 0.890648C5.76499 0.867832 5.76438 0.845016 5.76374 0.821509C5.76162 0.736557 5.76027 0.651608 5.75917 0.566637C5.75858 0.529921 5.75778 0.493207 5.75676 0.456499C5.75533 0.403608 5.75467 0.350752 5.75416 0.297844C5.75355 0.281531 5.75295 0.265218 5.75233 0.24841C5.75228 0.166305 5.76241 0.12174 5.80996 0.0542781C5.91389 -0.0231447 5.99737 -0.0163003 6.12388 -0.0148576ZM6.23435 0.468773C6.23435 2.6344 6.23435 4.80002 6.23435 7.03127C6.38131 7.03127 6.52826 7.03127 6.67967 7.03127C6.6798 6.97222 6.67994 6.91317 6.68008 6.85233C6.68141 6.29671 6.68312 5.7411 6.68519 5.18549C6.68624 4.89982 6.68717 4.61415 6.68779 4.32848C6.68832 4.07953 6.68911 3.83058 6.69018 3.58163C6.69074 3.44978 6.69118 3.31793 6.69133 3.18608C6.69147 3.06201 6.69194 2.93796 6.69266 2.8139C6.69286 2.76833 6.69295 2.72276 6.69291 2.67719C6.69287 2.61503 6.69326 2.55289 6.69376 2.49073C6.69364 2.47265 6.69353 2.45457 6.69341 2.43594C6.6948 2.33118 6.70762 2.26249 6.77342 2.17971C6.83784 2.14985 6.8988 2.13534 6.9687 2.12386C7.17151 2.08959 7.31774 2.01282 7.44733 1.85021C7.53222 1.71796 7.55563 1.56335 7.57679 1.41012C7.6005 1.33912 7.62107 1.32505 7.68748 1.28909C7.76362 1.27846 7.83931 1.27949 7.91608 1.27999C7.95086 1.2798 7.95086 1.2798 7.98633 1.27961C8.06298 1.2793 8.13963 1.27951 8.21629 1.27975C8.26953 1.2797 8.32277 1.27963 8.37601 1.27954C8.4876 1.27944 8.59919 1.27959 8.71079 1.27992C8.85392 1.28032 8.99704 1.28009 9.14016 1.27967C9.25011 1.27941 9.36004 1.27949 9.46999 1.27968C9.52276 1.27972 9.57554 1.27967 9.62832 1.2795C9.70205 1.27932 9.77577 1.2796 9.8495 1.27999C9.8823 1.27977 9.8823 1.27977 9.91577 1.27956C10.0626 1.281 10.0626 1.281 10.1379 1.32031C10.1897 1.38 10.1943 1.43899 10.207 1.51614C10.2536 1.75572 10.3216 1.89537 10.5234 2.03909C10.6407 2.10324 10.7546 2.12385 10.8855 2.14162C10.9528 2.15811 10.9887 2.17935 11.039 2.22659C11.061 2.29249 11.0657 2.33372 11.0663 2.40199C11.0665 2.42319 11.0667 2.44439 11.0669 2.46624C11.0671 2.50051 11.0671 2.50051 11.0672 2.53548C11.0674 2.55904 11.0675 2.58259 11.0676 2.60686C11.0679 2.6567 11.068 2.70655 11.0681 2.75639C11.0683 2.83257 11.0691 2.90874 11.0698 2.98492C11.07 3.03335 11.0701 3.08178 11.0702 3.13021C11.0705 3.15297 11.0707 3.17573 11.071 3.19917C11.0707 3.3152 11.0703 3.39923 10.9922 3.49221C10.9116 3.53251 10.8227 3.52461 10.7344 3.51565C10.6573 3.47517 10.645 3.45841 10.6172 3.37502C10.6136 3.31448 10.6111 3.25444 10.6097 3.19384C10.609 3.16746 10.609 3.16746 10.6083 3.14054C10.6067 3.08443 10.6054 3.02831 10.604 2.97219C10.603 2.93412 10.6019 2.89605 10.6009 2.85798C10.5984 2.7647 10.596 2.67143 10.5937 2.57815C10.5731 2.57059 10.5524 2.56303 10.5311 2.55524C10.5038 2.54507 10.4766 2.53489 10.4485 2.52441C10.4216 2.51443 10.3946 2.50446 10.3668 2.49418C10.1067 2.38312 9.9295 2.16801 9.8213 1.91283C9.81323 1.89262 9.80516 1.87241 9.79685 1.85159C9.77365 1.79358 9.77365 1.79358 9.74998 1.7344C9.17763 1.7344 8.60529 1.7344 8.0156 1.7344C7.93439 1.92002 7.93439 1.92002 7.85154 2.1094C7.66118 2.35854 7.46861 2.47923 7.17185 2.57815C7.17185 4.04768 7.17185 5.51721 7.17185 7.03127C7.57404 7.03127 7.97623 7.03127 8.3906 7.03127C8.34313 6.99567 8.29563 6.96009 8.24732 6.92562C8.0216 6.75963 7.86406 6.54807 7.7902 6.27459C7.73909 5.91212 7.78855 5.58589 8.00974 5.28866C8.18186 5.08114 8.40884 4.9555 8.67185 4.89846C9.05159 4.87906 9.34798 4.92279 9.6489 5.17239C9.84396 5.35314 9.97548 5.61536 9.98911 5.88229C9.99545 6.25714 9.92151 6.53568 9.66255 6.81841C9.58847 6.88637 9.50775 6.93444 9.41966 6.9822C9.40491 6.99066 9.39017 6.99912 9.37498 7.00784C9.37498 7.01557 9.37498 7.0233 9.37498 7.03127C9.39657 7.0316 9.39657 7.0316 9.41859 7.03194C9.48513 7.03321 9.55162 7.03517 9.61814 7.03713C9.64077 7.03747 9.6634 7.0378 9.68672 7.03814C9.91722 7.04588 10.1024 7.10794 10.2714 7.26739C10.4221 7.43284 10.4849 7.60428 10.4809 7.82815C10.4809 7.85226 10.4809 7.85226 10.4809 7.87685C10.4801 7.97224 10.4714 8.0627 10.4531 8.15627C10.4995 8.15627 10.5459 8.15627 10.5937 8.15627C10.5937 8.14225 10.5938 8.12822 10.5938 8.11378C10.5941 7.77242 10.5951 7.43108 10.5968 7.08973C10.5976 6.92466 10.5982 6.75959 10.5983 6.59452C10.5984 6.43525 10.5991 6.276 10.6001 6.11673C10.6004 6.05593 10.6005 5.99512 10.6004 5.93432C10.6003 5.84924 10.6009 5.76419 10.6017 5.67911C10.6015 5.65389 10.6013 5.62867 10.6011 5.60269C10.6037 5.43185 10.6037 5.43185 10.6733 5.3398C10.7653 5.27517 10.8371 5.2781 10.9453 5.2969C11.0224 5.33737 11.0347 5.35413 11.0625 5.43752C11.0647 5.47843 11.0655 5.51942 11.0656 5.56039C11.0657 5.59858 11.0657 5.59858 11.0658 5.63755C11.0658 5.67946 11.0658 5.67946 11.0658 5.72222C11.0659 5.7674 11.0661 5.81257 11.0662 5.85774C11.0663 5.90633 11.0664 5.95491 11.0664 6.0035C11.0666 6.10486 11.067 6.20622 11.0674 6.30759C11.0675 6.34231 11.0677 6.37704 11.0678 6.41177C11.0679 6.42916 11.068 6.44655 11.0681 6.46447C11.0691 6.70043 11.0698 6.93639 11.0701 7.17235C11.0703 7.33154 11.0708 7.49072 11.0717 7.64991C11.0722 7.73409 11.0725 7.81827 11.0724 7.90245C11.0722 7.99649 11.0728 8.0905 11.0735 8.18454C11.0733 8.21224 11.0732 8.23995 11.073 8.26849C11.0746 8.40748 11.0839 8.51205 11.1567 8.63227C11.2419 8.77939 11.2462 8.95808 11.2104 9.11987C11.1482 9.34467 11.0745 9.49468 10.872 9.61672C10.843 9.63254 10.843 9.63254 10.8133 9.64867C10.7596 9.67869 10.7123 9.71208 10.664 9.75002C10.6716 9.77356 10.6791 9.79709 10.6869 9.82134C10.7441 10.0228 10.74 10.2562 10.6497 10.4466C10.546 10.6169 10.4105 10.7626 10.2187 10.8281C10.1018 10.8504 9.98578 10.8646 9.86717 10.875C9.87478 10.8987 9.88239 10.9224 9.89024 10.9468C9.91486 11.0333 9.9203 11.1129 9.9199 11.2031C9.92008 11.2438 9.92008 11.2438 9.92027 11.2852C9.91404 11.3672 9.91404 11.3672 9.86717 11.5313C10.4086 11.5313 10.95 11.5313 11.5078 11.5313C11.5078 7.88065 11.5078 4.23002 11.5078 0.468773C9.76756 0.468773 8.02732 0.468773 6.23435 0.468773ZM5.55279 1.44893C5.53571 1.45347 5.51864 1.458 5.50104 1.46267C5.44444 1.47772 5.38786 1.49285 5.33128 1.50799C5.29205 1.51845 5.25281 1.5289 5.21358 1.53935C5.13129 1.56128 5.04902 1.58325 4.96675 1.60526C4.86115 1.6335 4.75553 1.66164 4.64991 1.68975C4.56887 1.71132 4.48785 1.73295 4.40683 1.75459C4.36788 1.76499 4.32893 1.77537 4.28998 1.78573C4.23559 1.80022 4.18122 1.81477 4.12685 1.82933C4.11066 1.83363 4.09446 1.83793 4.07778 1.84236C3.99388 1.86483 3.99388 1.86483 3.91404 1.89846C3.95021 2.09952 4.00223 2.29602 4.05503 2.49319C4.0646 2.52912 4.07416 2.56506 4.08371 2.601C4.10957 2.69815 4.13551 2.79528 4.16148 2.89241C4.18326 2.97392 4.205 3.05545 4.22674 3.13698C4.28422 3.35254 4.3418 3.56807 4.39943 3.78359C4.44132 3.94026 4.48314 4.09695 4.52493 4.25364C4.5834 4.47291 4.64197 4.69215 4.7006 4.91138C4.72296 4.99497 4.74528 5.07857 4.76758 5.16218C4.79397 5.26113 4.82043 5.36005 4.84696 5.45896C4.85661 5.49499 4.86624 5.53102 4.87583 5.56707C4.9283 5.76412 4.98425 5.95942 5.04591 6.1538C5.07974 6.26062 5.11034 6.36733 5.13755 6.47601C5.14346 6.49932 5.14346 6.49932 5.14949 6.5231C5.1616 6.57088 5.17358 6.6187 5.18552 6.66653C5.19782 6.71561 5.21014 6.76468 5.22256 6.81372C5.23359 6.85727 5.2445 6.90085 5.2554 6.94443C5.26716 7.00538 5.26716 7.00538 5.29685 7.03127C5.32832 7.0333 5.35989 7.03378 5.39143 7.03356C5.41038 7.03349 5.42934 7.03341 5.44888 7.03333C5.4688 7.03314 5.48873 7.03294 5.50925 7.03274C5.52927 7.03263 5.54929 7.03253 5.56991 7.03242C5.61952 7.03214 5.66912 7.03172 5.71873 7.03127C5.70503 6.92526 5.68623 6.82394 5.65845 6.72075C5.65088 6.69246 5.64331 6.66417 5.63552 6.63502C5.62715 6.60414 5.61879 6.57326 5.61042 6.54238C5.60161 6.50958 5.5928 6.47677 5.584 6.44396C5.56513 6.37368 5.54621 6.30342 5.52724 6.23317C5.4973 6.12227 5.46755 6.01132 5.43782 5.90037C5.34483 5.55357 5.25122 5.20694 5.15624 4.86068C5.12145 4.73384 5.08685 4.60695 5.0523 4.48005C5.0242 4.37694 4.99582 4.27392 4.96723 4.17095C4.94953 4.10697 4.93209 4.04293 4.91473 3.97886C4.90283 3.93529 4.89062 3.89182 4.87839 3.84834C4.84193 3.7128 4.81327 3.60573 4.85154 3.46877C4.90353 3.39295 4.96235 3.36642 5.0449 3.33254C5.21315 3.26131 5.34753 3.15009 5.42155 2.98043C5.46307 2.84822 5.46664 2.7202 5.44627 2.58401C5.43768 2.51449 5.43911 2.47721 5.45506 2.40676C5.50779 2.34377 5.50779 2.34377 5.7656 2.25002C5.7656 1.97159 5.7656 1.69315 5.7656 1.40627C5.69208 1.40627 5.62339 1.42998 5.55279 1.44893ZM5.74217 3.37502C5.71774 3.40292 5.69393 3.43135 5.67039 3.45998C5.59766 3.54473 5.52156 3.6103 5.43043 3.6744C5.38743 3.70383 5.38743 3.70383 5.34373 3.75002C5.47521 4.23729 5.6067 4.72455 5.74217 5.22659C5.7499 5.22659 5.75763 5.22659 5.7656 5.22659C5.7656 4.61557 5.7656 4.00455 5.7656 3.37502C5.75787 3.37502 5.75013 3.37502 5.74217 3.37502ZM8.36717 5.60159C8.24408 5.7715 8.23603 5.93649 8.24998 6.14065C8.28155 6.30981 8.39035 6.44755 8.52821 6.54742C8.6972 6.64809 8.88509 6.65865 9.07688 6.62286C9.2367 6.57117 9.37006 6.45555 9.45554 6.31204C9.53523 6.14311 9.54868 5.93907 9.4907 5.75979C9.41472 5.58857 9.28406 5.46937 9.11717 5.39065C8.82707 5.29927 8.56735 5.38542 8.36717 5.60159ZM4.03612 7.15068C3.6177 7.57502 3.57205 8.00327 3.5753 8.57946C3.57741 8.76228 3.58568 8.94462 3.59551 9.12716C3.60532 9.31493 3.60768 9.50264 3.61015 9.69063C3.61235 9.83522 3.61637 9.97976 3.62066 10.1243C3.62166 10.1589 3.62261 10.1936 3.62348 10.2282C3.62638 10.3415 3.63139 10.4545 3.63744 10.5676C3.63814 10.5958 3.63884 10.624 3.63957 10.653C3.64998 10.8098 3.67679 10.8885 3.79485 10.9958C3.83405 11.0265 3.87374 11.0567 3.91404 11.086C3.93897 11.1067 3.96378 11.1275 3.98838 11.1486C4.0303 11.1824 4.07224 11.2162 4.11417 11.2499C4.1591 11.2865 4.20214 11.324 4.24509 11.3628C4.43727 11.509 4.63788 11.5349 4.875 11.5346C4.8932 11.5346 4.91139 11.5347 4.93013 11.5348C4.99073 11.535 5.05132 11.535 5.11191 11.5351C5.1555 11.5352 5.1991 11.5353 5.24269 11.5354C5.36084 11.5357 5.479 11.5359 5.59715 11.536C5.67102 11.536 5.74488 11.5361 5.81874 11.5362C6.04998 11.5366 6.28121 11.5368 6.51245 11.5369C6.77914 11.537 7.04584 11.5374 7.31253 11.5381C7.51889 11.5386 7.72524 11.5388 7.9316 11.5388C8.05476 11.5389 8.17793 11.539 8.30109 11.5394C8.41692 11.5398 8.53275 11.5399 8.64858 11.5397C8.69102 11.5396 8.73346 11.5397 8.7759 11.54C8.83397 11.5403 8.89203 11.5401 8.9501 11.5399C8.9751 11.5402 8.9751 11.5402 9.00061 11.5405C9.12525 11.5392 9.21582 11.5114 9.3281 11.461C9.42164 11.3626 9.45387 11.2955 9.45188 11.1586C9.441 11.0774 9.40408 11.0298 9.35154 10.9688C9.22099 10.8717 9.08873 10.8716 8.93108 10.8721C8.9127 10.872 8.89431 10.872 8.87537 10.8719C8.8356 10.8718 8.79583 10.8718 8.75606 10.8718C8.6715 10.8717 8.58695 10.8712 8.5024 10.8707C8.34508 10.8698 8.18778 10.8691 8.03046 10.8692C7.92091 10.8692 7.81136 10.8686 7.70181 10.8677C7.66009 10.8675 7.61836 10.8674 7.57664 10.8676C7.51834 10.8678 7.46008 10.8673 7.40178 10.8667C7.38455 10.8669 7.36732 10.8671 7.34957 10.8674C7.26065 10.8656 7.22569 10.8584 7.16119 10.7951C7.12627 10.7366 7.11218 10.7076 7.11326 10.6406C7.1129 10.6182 7.1129 10.6182 7.11253 10.5952C7.13268 10.517 7.1582 10.4847 7.21873 10.4297C7.30443 10.4117 7.38941 10.414 7.47671 10.415C7.50302 10.4148 7.52932 10.4147 7.55643 10.4145C7.64351 10.414 7.73058 10.4144 7.81767 10.4148C7.87815 10.4146 7.93863 10.4144 7.99912 10.4141C8.14222 10.4134 8.28531 10.4133 8.42841 10.4135C8.69967 10.4138 8.97092 10.413 9.24217 10.4121C9.33126 10.4119 9.42034 10.412 9.50943 10.4122C9.5641 10.4121 9.61876 10.412 9.67343 10.4119C9.6982 10.412 9.72297 10.4122 9.74849 10.4123C9.92832 10.4116 10.0596 10.3938 10.1953 10.2656C10.2488 10.1943 10.252 10.1201 10.2497 10.0319C10.234 9.93286 10.174 9.86771 10.103 9.80129C10.0146 9.75037 9.9211 9.7471 9.8208 9.7471C9.7979 9.74704 9.775 9.74698 9.7514 9.74692C9.72655 9.74697 9.7017 9.74702 9.67609 9.74707C9.63651 9.74701 9.63651 9.74701 9.59614 9.74694C9.53891 9.74684 9.48168 9.7468 9.42445 9.74679C9.28722 9.7467 9.14999 9.74609 9.01276 9.74554C8.80216 9.74472 8.59155 9.74409 8.38094 9.74415C8.22351 9.74419 8.0661 9.74363 7.90868 9.7427C7.84864 9.74246 7.7886 9.74242 7.72856 9.7426C7.64472 9.74282 7.56092 9.74233 7.47708 9.74167C7.43973 9.74203 7.43973 9.74203 7.40163 9.74239C7.23351 9.74001 7.23351 9.74 7.15648 9.67007C7.1266 9.61253 7.11223 9.57969 7.11326 9.51565C7.1129 9.49317 7.1129 9.49317 7.11253 9.47024C7.13121 9.3977 7.16712 9.35835 7.21873 9.30471C7.27995 9.29006 7.27995 9.29006 7.3508 9.29004C7.37771 9.28975 7.40462 9.28946 7.43234 9.28916C7.47648 9.28958 7.47648 9.28958 7.52152 9.29C7.5529 9.28988 7.58429 9.2897 7.61567 9.28948C7.68321 9.28912 7.75074 9.28912 7.81828 9.28941C7.92515 9.28987 8.03202 9.28951 8.1389 9.28905C8.30803 9.28841 8.47716 9.28833 8.6463 9.28848C8.94893 9.28874 9.25156 9.28816 9.55419 9.28722C9.66035 9.28692 9.76649 9.28689 9.87264 9.28709C9.93882 9.28717 10.005 9.28707 10.0712 9.28693C10.1163 9.28689 10.1614 9.28709 10.2065 9.28729C10.4479 9.28844 10.4479 9.28844 10.6596 9.18459C10.7224 9.1021 10.7534 9.03376 10.7578 8.92971C10.7252 8.82109 10.6851 8.74044 10.5937 8.6719C10.438 8.61142 10.283 8.61866 10.1178 8.61941C10.0863 8.61938 10.0548 8.61934 10.0233 8.61927C9.95568 8.61916 9.88811 8.61918 9.82053 8.61931C9.71367 8.61949 9.60681 8.61924 9.49995 8.61891C9.19619 8.61802 8.89242 8.61759 8.58865 8.61787C8.42067 8.61801 8.2527 8.61774 8.08472 8.61701C7.97849 8.61657 7.87227 8.61665 7.76604 8.61711C7.70002 8.61727 7.634 8.61694 7.56798 8.61648C7.52277 8.6163 7.47755 8.61671 7.43234 8.61713C7.40543 8.61684 7.37852 8.61655 7.3508 8.61625C7.32742 8.61625 7.30404 8.61625 7.27995 8.61624C7.19571 8.59608 7.17116 8.55555 7.12498 8.4844C7.11253 8.43606 7.11253 8.43606 7.11326 8.39065C7.1129 8.36817 7.1129 8.36817 7.11253 8.34524C7.13239 8.26812 7.15993 8.2343 7.21873 8.17971C7.29718 8.16189 7.37467 8.16402 7.45483 8.165C7.47881 8.16483 7.50279 8.16466 7.5275 8.16448C7.60686 8.16405 7.68621 8.16442 7.76557 8.16479C7.82075 8.1646 7.87592 8.16435 7.93109 8.16405C8.07648 8.16338 8.22187 8.16337 8.36726 8.16353C8.59974 8.1637 8.8322 8.16297 9.06467 8.16207C9.14583 8.16186 9.22698 8.16199 9.30814 8.16215C9.35806 8.16207 9.40798 8.16198 9.45791 8.16189C9.4804 8.16202 9.50289 8.16215 9.52607 8.16229C9.72961 8.16282 9.72961 8.16282 9.908 8.07571C9.99295 7.95853 10.0277 7.88103 10.0078 7.7344C9.95976 7.64349 9.90999 7.57511 9.82029 7.52346C9.71783 7.49604 9.61623 7.49677 9.51095 7.4971C9.48207 7.49705 9.48207 7.49705 9.45261 7.497C9.38814 7.49692 9.32368 7.497 9.25921 7.49707C9.21297 7.49704 9.16673 7.49699 9.12049 7.49694C9.02094 7.49683 8.9214 7.49679 8.82185 7.49679C8.66448 7.49676 8.50711 7.49646 8.34974 7.49609C8.32319 7.49603 8.29663 7.49597 8.26927 7.49591C8.21497 7.49579 8.16067 7.49566 8.10637 7.49554C7.74001 7.49472 7.37366 7.49409 7.0073 7.49415C6.76014 7.49419 6.51298 7.49381 6.26582 7.49296C6.13502 7.49253 6.00422 7.49231 5.87342 7.4926C5.75045 7.49287 5.62749 7.4926 5.50453 7.49191C5.45937 7.49175 5.41422 7.49179 5.36907 7.49205C5.30747 7.49238 5.24591 7.49198 5.18431 7.49141C5.16641 7.49168 5.1485 7.49194 5.13005 7.49222C5.038 7.49055 4.99644 7.47998 4.92347 7.42207C4.86442 7.34575 4.84525 7.28265 4.82252 7.18902C4.81852 7.17306 4.81453 7.1571 4.81041 7.14065C4.79785 7.09012 4.78587 7.03947 4.7739 6.98879C4.76544 6.95431 4.75694 6.91984 4.74841 6.88538C4.72766 6.8013 4.70743 6.71711 4.68748 6.63284C4.49325 6.63284 4.17768 7.01233 4.03612 7.15068ZM0.53904 7.31252C0.481728 7.39849 0.48612 7.4401 0.485739 7.54265C0.485617 7.559 0.485494 7.57534 0.485367 7.59218C0.485015 7.64708 0.484999 7.70197 0.484984 7.75686C0.484805 7.79617 0.484608 7.83547 0.484393 7.87478C0.483878 7.98165 0.483672 8.08852 0.483553 8.1954C0.483468 8.26215 0.483321 8.32889 0.483154 8.39564C0.48258 8.62844 0.482274 8.86123 0.482191 9.09403C0.482106 9.31113 0.481405 9.52822 0.480424 9.74533C0.479611 9.93163 0.479249 10.1179 0.479232 10.3042C0.479214 10.4156 0.479008 10.5269 0.478342 10.6382C0.477729 10.7429 0.477676 10.8475 0.478053 10.9522C0.478095 10.9907 0.477937 11.0291 0.477565 11.0675C0.477087 11.12 0.477331 11.1724 0.477757 11.2249C0.47771 11.2542 0.477663 11.2836 0.477614 11.3138C0.496289 11.4124 0.531194 11.4467 0.609352 11.5078C0.672555 11.5325 0.731204 11.5343 0.798691 11.5346C0.817515 11.5347 0.836338 11.5348 0.855732 11.535C0.876177 11.535 0.896621 11.535 0.917685 11.5351C0.93938 11.5352 0.961076 11.5353 0.983429 11.5354C1.05518 11.5357 1.12693 11.5359 1.19868 11.536C1.2486 11.5362 1.29851 11.5363 1.34843 11.5364C1.45311 11.5367 1.55779 11.5368 1.66247 11.5369C1.79644 11.537 1.93042 11.5376 2.06439 11.5383C2.16752 11.5387 2.27065 11.5388 2.37378 11.5389C2.42316 11.5389 2.47255 11.5391 2.52193 11.5394C2.5911 11.5398 2.66025 11.5398 2.72942 11.5396C2.75988 11.54 2.75988 11.54 2.79094 11.5403C2.91678 11.5394 3.00893 11.528 3.11716 11.461C3.17668 11.3475 3.19628 11.2628 3.19641 11.1332C3.19652 11.1176 3.19663 11.102 3.19674 11.0859C3.19702 11.034 3.1968 10.9821 3.19658 10.9302C3.19667 10.8928 3.1968 10.8554 3.19695 10.818C3.19727 10.7167 3.19715 10.6155 3.19692 10.5142C3.19674 10.4081 3.19691 10.302 3.19702 10.1959C3.19715 10.0177 3.19698 9.83951 3.19664 9.66132C3.19626 9.45551 3.19639 9.2497 3.19677 9.04389C3.19709 8.86697 3.19714 8.69006 3.19695 8.51314C3.19684 8.40757 3.19683 8.302 3.19706 8.19642C3.19726 8.09716 3.19712 7.9979 3.19672 7.89863C3.19662 7.86226 3.19665 7.8259 3.19681 7.78953C3.197 7.73976 3.19676 7.69001 3.19641 7.64024C3.19638 7.61244 3.19635 7.58463 3.19633 7.55598C3.18558 7.45956 3.16227 7.39839 3.11716 7.31252C2.99515 7.23792 2.8878 7.23253 2.74738 7.23534C2.72837 7.23544 2.70935 7.23554 2.68976 7.23565C2.62958 7.23604 2.56943 7.23692 2.50925 7.23782C2.46822 7.23817 2.42719 7.23849 2.38616 7.23878C2.28607 7.23955 2.186 7.24076 2.08592 7.24221C2.08584 7.25595 2.08576 7.26969 2.08568 7.28385C2.08377 7.61856 2.08162 7.95327 2.07918 8.28799C2.078 8.44985 2.07691 8.61172 2.07603 8.77359C2.07517 8.92981 2.07408 9.08603 2.07284 9.24225C2.0724 9.30184 2.07205 9.36143 2.07177 9.42102C2.07138 9.50451 2.0707 9.58799 2.06995 9.67148C2.0699 9.69609 2.06985 9.7207 2.0698 9.74606C2.06835 9.87294 2.06235 9.98286 2.0156 10.1016C1.9355 10.1612 1.88982 10.1722 1.79002 10.1704C1.70176 10.1459 1.67388 10.125 1.61716 10.0547C1.60526 9.99925 1.60526 9.99925 1.605 9.93666C1.60468 9.91287 1.60435 9.88908 1.60401 9.86456C1.60413 9.8386 1.60425 9.81264 1.60437 9.78589C1.60413 9.75844 1.60389 9.731 1.60364 9.70272C1.60294 9.61192 1.60291 9.52113 1.60288 9.43032C1.60258 9.3674 1.60214 9.30448 1.60171 9.24155C1.60076 9.09281 1.60028 8.94407 1.59997 8.79532C1.5996 8.62596 1.5987 8.4566 1.59776 8.28724C1.59583 7.9389 1.59456 7.59056 1.59373 7.24221C1.46989 7.24047 1.34607 7.23919 1.22222 7.23835C1.18015 7.238 1.13807 7.23752 1.096 7.23691C1.03531 7.23605 0.974638 7.23565 0.913948 7.23534C0.895314 7.23498 0.876679 7.23462 0.85748 7.23425C0.733975 7.23421 0.648104 7.25308 0.53904 7.31252Z" fill="#0066AE"/>
<path d="M10.9453 4.21892C11.0156 4.25261 11.0156 4.25261 11.0625 4.31267C11.0928 4.41418 11.0984 4.49437 11.0566 4.59246C11.0093 4.64826 10.9702 4.68366 10.8964 4.69554C10.8063 4.69708 10.7464 4.69346 10.6641 4.65398C10.5973 4.56842 10.5868 4.49025 10.5937 4.38298C10.6645 4.21668 10.78 4.19659 10.9453 4.21892Z" fill="white"/>
<path d="M1.94536 10.5938C2.01861 10.6377 2.01861 10.6377 2.06255 10.711C2.08573 10.8288 2.08076 10.915 2.01861 11.0186C1.91502 11.0808 1.82879 11.0857 1.71099 11.0626C1.63775 11.0186 1.63775 11.0186 1.5938 10.9454C1.57063 10.8276 1.57559 10.7413 1.63775 10.6377C1.74134 10.5756 1.82756 10.5706 1.94536 10.5938Z" fill="white"/>
</g>
<defs>
<clipPath id="clip0_4022_14990">
<rect width="12" height="12" fill="white"/>
</clipPath>
</defs>
</svg>
