<svg width="19" height="22" viewBox="0 0 19 22" fill="none" xmlns="http://www.w3.org/2000/svg">
<g id="Notification">
<g id="Group 3">
<mask id="mask0_778_59" style="mask-type:luminance" maskUnits="userSpaceOnUse" x="0" y="0" width="19" height="18">
<path id="Clip 2" fill-rule="evenodd" clip-rule="evenodd" d="M0 0.5H18.4969V17.848H0V0.5Z" fill="white"/>
</mask>
<g mask="url(#mask0_778_59)">
<path id="Fill 1" fill-rule="evenodd" clip-rule="evenodd" d="M9.24701 2C5.75201 2 3.31601 4.738 3.31601 7.195C3.31601 9.274 2.73901 10.235 2.22901 11.083C1.82001 11.764 1.49701 12.302 1.49701 13.471C1.66401 15.357 2.90901 16.348 9.24701 16.348C15.55 16.348 16.834 15.313 17 13.406C16.997 12.302 16.674 11.764 16.265 11.083C15.755 10.235 15.178 9.274 15.178 7.195C15.178 4.738 12.742 2 9.24701 2ZM9.24701 17.848C4.57101 17.848 0.345013 17.518 1.33547e-05 13.535C-0.00298665 11.887 0.500013 11.049 0.944013 10.311C1.39301 9.563 1.81601 8.858 1.81601 7.195C1.81601 3.962 4.80201 0.5 9.24701 0.5C13.692 0.5 16.678 3.962 16.678 7.195C16.678 8.858 17.101 9.563 17.55 10.311C17.994 11.049 18.497 11.887 18.497 13.471C18.148 17.518 13.923 17.848 9.24701 17.848Z" fill="#0066AE"/>
</g>
</g>
<path id="Fill 4" fill-rule="evenodd" clip-rule="evenodd" d="M9.19827 22H9.19627C8.07527 21.999 7.01427 21.505 6.20927 20.608C5.93227 20.301 5.95727 19.826 6.26527 19.55C6.57327 19.272 7.04727 19.297 7.32427 19.606C7.84227 20.183 8.50727 20.5 9.19727 20.5H9.19827C9.89127 20.5 10.5593 20.183 11.0783 19.605C11.3563 19.298 11.8303 19.273 12.1373 19.55C12.4453 19.827 12.4703 20.302 12.1933 20.609C11.3853 21.506 10.3223 22 9.19827 22Z" fill="#0066AE"/>
</g>
</svg>
