<svg width="12" height="12" viewBox="0 0 12 12" fill="none" xmlns="http://www.w3.org/2000/svg">
<g clip-path="url(#clip0_4022_14919)">
<path d="M8.46094 6.32812C8.69297 6.32812 8.925 6.32812 9.16406 6.32812C9.16406 6.56016 9.16406 6.79219 9.16406 7.03125C9.62812 7.03125 10.0922 7.03125 10.5703 7.03125C10.5703 8.19141 10.5703 9.35156 10.5703 10.5469C9.41016 10.5469 8.25 10.5469 7.05469 10.5469C7.05469 10.0828 7.05469 9.61875 7.05469 9.14062C6.82266 9.14062 6.59062 9.14062 6.35156 9.14062C6.35156 8.90859 6.35156 8.67656 6.35156 8.4375C6.58359 8.4375 6.81563 8.4375 7.05469 8.4375C7.05469 8.20547 7.05469 7.97344 7.05469 7.73438C6.82266 7.73438 6.59062 7.73438 6.35156 7.73438C6.35156 7.50234 6.35156 7.27031 6.35156 7.03125C7.04766 7.03125 7.74375 7.03125 8.46094 7.03125C8.46094 6.79922 8.46094 6.56719 8.46094 6.32812ZM7.75781 7.73438C7.75781 8.43047 7.75781 9.12656 7.75781 9.84375C8.45391 9.84375 9.15 9.84375 9.86719 9.84375C9.86719 9.14766 9.86719 8.45156 9.86719 7.73438C9.17109 7.73438 8.475 7.73438 7.75781 7.73438Z" fill="#0066AE"/>
<path d="M1.42969 5.625C2.58984 5.625 3.75 5.625 4.94531 5.625C4.94531 5.85703 4.94531 6.08906 4.94531 6.32812C4.48125 6.32812 4.01719 6.32812 3.53906 6.32812C3.53906 7.02422 3.53906 7.72031 3.53906 8.4375C3.77109 8.4375 4.00312 8.4375 4.24219 8.4375C4.24219 8.66953 4.24219 8.90156 4.24219 9.14062C4.01016 9.14062 3.77813 9.14062 3.53906 9.14062C3.53906 9.37266 3.53906 9.60469 3.53906 9.84375C4.00312 9.84375 4.46719 9.84375 4.94531 9.84375C4.94531 9.61172 4.94531 9.37969 4.94531 9.14062C5.17734 9.14062 5.40937 9.14062 5.64844 9.14062C5.64844 9.37266 5.64844 9.60469 5.64844 9.84375C5.88047 9.84375 6.1125 9.84375 6.35156 9.84375C6.35156 10.0758 6.35156 10.3078 6.35156 10.5469C5.19141 10.5469 4.03125 10.5469 2.83594 10.5469C2.83594 10.3148 2.83594 10.0828 2.83594 9.84375C2.60391 9.84375 2.37187 9.84375 2.13281 9.84375C2.13281 9.61172 2.13281 9.37969 2.13281 9.14062C2.36484 9.14062 2.59687 9.14062 2.83594 9.14062C2.83594 8.67656 2.83594 8.2125 2.83594 7.73438C2.60391 7.73438 2.37187 7.73438 2.13281 7.73438C2.13281 7.50234 2.13281 7.27031 2.13281 7.03125C2.36484 7.03125 2.59687 7.03125 2.83594 7.03125C2.83594 6.79922 2.83594 6.56719 2.83594 6.32812C2.37188 6.32812 1.90781 6.32812 1.42969 6.32812C1.42969 6.09609 1.42969 5.86406 1.42969 5.625Z" fill="#0066AE"/>
<path d="M7.05469 1.40625C8.21484 1.40625 9.375 1.40625 10.5703 1.40625C10.5703 2.56641 10.5703 3.72656 10.5703 4.92188C10.1063 4.92188 9.64219 4.92188 9.16406 4.92188C9.16406 5.15391 9.16406 5.38594 9.16406 5.625C8.93203 5.625 8.7 5.625 8.46094 5.625C8.46094 5.39297 8.46094 5.16094 8.46094 4.92188C7.99688 4.92188 7.53281 4.92188 7.05469 4.92188C7.05469 3.76172 7.05469 2.60156 7.05469 1.40625ZM7.75781 2.10938C7.75781 2.80547 7.75781 3.50156 7.75781 4.21875C8.45391 4.21875 9.15 4.21875 9.86719 4.21875C9.86719 3.52266 9.86719 2.82656 9.86719 2.10938C9.17109 2.10938 8.475 2.10938 7.75781 2.10938Z" fill="#0066AE"/>
<path d="M1.42969 1.40625C2.58984 1.40625 3.75 1.40625 4.94531 1.40625C4.94531 1.63828 4.94531 1.87031 4.94531 2.10938C5.17734 2.10938 5.40937 2.10938 5.64844 2.10938C5.64844 2.34141 5.64844 2.57344 5.64844 2.8125C5.41641 2.8125 5.18438 2.8125 4.94531 2.8125C4.94531 3.50859 4.94531 4.20469 4.94531 4.92188C3.78516 4.92188 2.625 4.92188 1.42969 4.92188C1.42969 3.76172 1.42969 2.60156 1.42969 1.40625ZM2.13281 2.10938C2.13281 2.80547 2.13281 3.50156 2.13281 4.21875C2.82891 4.21875 3.525 4.21875 4.24219 4.21875C4.24219 3.52266 4.24219 2.82656 4.24219 2.10938C3.54609 2.10938 2.85 2.10938 2.13281 2.10938Z" fill="#0066AE"/>
<path d="M11.2969 9.1875C11.5289 9.1875 11.7609 9.1875 12 9.1875C12 10.1156 12 11.0438 12 12C11.0719 12 10.1437 12 9.1875 12C9.1875 11.768 9.1875 11.5359 9.1875 11.2969C9.88359 11.2969 10.5797 11.2969 11.2969 11.2969C11.2969 10.6008 11.2969 9.90469 11.2969 9.1875Z" fill="#0066AE"/>
<path d="M0 9.1875C0.232031 9.1875 0.464063 9.1875 0.703125 9.1875C0.703125 9.88359 0.703125 10.5797 0.703125 11.2969C1.39922 11.2969 2.09531 11.2969 2.8125 11.2969C2.8125 11.5289 2.8125 11.7609 2.8125 12C1.88438 12 0.95625 12 0 12C0 11.0719 0 10.1437 0 9.1875Z" fill="#0066AE"/>
<path d="M9.1875 0C10.1156 0 11.0438 0 12 0C12 0.928125 12 1.85625 12 2.8125C11.768 2.8125 11.5359 2.8125 11.2969 2.8125C11.2969 2.11641 11.2969 1.42031 11.2969 0.703125C10.6008 0.703125 9.90469 0.703125 9.1875 0.703125C9.1875 0.471094 9.1875 0.239062 9.1875 0Z" fill="#0066AE"/>
<path d="M0 0C0.928125 0 1.85625 0 2.8125 0C2.8125 0.232031 2.8125 0.464063 2.8125 0.703125C2.11641 0.703125 1.42031 0.703125 0.703125 0.703125C0.703125 1.39922 0.703125 2.09531 0.703125 2.8125C0.471094 2.8125 0.239062 2.8125 0 2.8125C0 1.88438 0 0.95625 0 0Z" fill="#0066AE"/>
<path d="M5.64844 4.92188C5.88047 4.92188 6.1125 4.92188 6.35156 4.92188C6.35156 5.15391 6.35156 5.38594 6.35156 5.625C7.04766 5.625 7.74375 5.625 8.46094 5.625C8.46094 5.85703 8.46094 6.08906 8.46094 6.32812C7.53281 6.32812 6.60469 6.32812 5.64844 6.32812C5.64844 5.86406 5.64844 5.4 5.64844 4.92188Z" fill="#0066AE"/>
<path d="M1.42969 7.73438C1.66172 7.73438 1.89375 7.73438 2.13281 7.73438C2.13281 8.19844 2.13281 8.6625 2.13281 9.14062C1.90078 9.14062 1.66875 9.14062 1.42969 9.14062C1.42969 8.67656 1.42969 8.2125 1.42969 7.73438Z" fill="#0066AE"/>
<path d="M4.24219 7.03125C4.47422 7.03125 4.70625 7.03125 4.94531 7.03125C4.94531 7.49531 4.94531 7.95938 4.94531 8.4375C4.71328 8.4375 4.48125 8.4375 4.24219 8.4375C4.24219 7.97344 4.24219 7.50937 4.24219 7.03125Z" fill="#0066AE"/>
<path d="M9.16406 5.625C9.62812 5.625 10.0922 5.625 10.5703 5.625C10.5703 5.85703 10.5703 6.08906 10.5703 6.32812C10.1063 6.32812 9.64219 6.32812 9.16406 6.32812C9.16406 6.09609 9.16406 5.86406 9.16406 5.625Z" fill="#0066AE"/>
<path d="M5.64844 2.8125C5.88047 2.8125 6.1125 2.8125 6.35156 2.8125C6.35156 3.27656 6.35156 3.74063 6.35156 4.21875C6.11953 4.21875 5.8875 4.21875 5.64844 4.21875C5.64844 3.75469 5.64844 3.29062 5.64844 2.8125Z" fill="#0066AE"/>
<path d="M1.42969 9.84375C1.66172 9.84375 1.89375 9.84375 2.13281 9.84375C2.13281 10.0758 2.13281 10.3078 2.13281 10.5469C1.90078 10.5469 1.66875 10.5469 1.42969 10.5469C1.42969 10.3148 1.42969 10.0828 1.42969 9.84375Z" fill="#0066AE"/>
<path d="M8.46094 8.4375C8.69297 8.4375 8.925 8.4375 9.16406 8.4375C9.16406 8.66953 9.16406 8.90156 9.16406 9.14062C8.93203 9.14062 8.7 9.14062 8.46094 9.14062C8.46094 8.90859 8.46094 8.67656 8.46094 8.4375Z" fill="#0066AE"/>
<path d="M5.64844 7.73438C5.88047 7.73438 6.1125 7.73438 6.35156 7.73438C6.35156 7.96641 6.35156 8.19844 6.35156 8.4375C6.11953 8.4375 5.8875 8.4375 5.64844 8.4375C5.64844 8.20547 5.64844 7.97344 5.64844 7.73438Z" fill="#0066AE"/>
<path d="M4.94531 6.32812C5.17734 6.32812 5.40938 6.32812 5.64844 6.32812C5.64844 6.56016 5.64844 6.79219 5.64844 7.03125C5.41641 7.03125 5.18437 7.03125 4.94531 7.03125C4.94531 6.79922 4.94531 6.56719 4.94531 6.32812Z" fill="#0066AE"/>
<path d="M8.46094 2.8125C8.69297 2.8125 8.925 2.8125 9.16406 2.8125C9.16406 3.04453 9.16406 3.27656 9.16406 3.51562C8.93203 3.51562 8.7 3.51562 8.46094 3.51562C8.46094 3.28359 8.46094 3.05156 8.46094 2.8125Z" fill="#0066AE"/>
<path d="M2.83594 2.8125C3.06797 2.8125 3.3 2.8125 3.53906 2.8125C3.53906 3.04453 3.53906 3.27656 3.53906 3.51562C3.30703 3.51562 3.075 3.51562 2.83594 3.51562C2.83594 3.28359 2.83594 3.05156 2.83594 2.8125Z" fill="#0066AE"/>
<path d="M5.64844 1.40625C5.88047 1.40625 6.1125 1.40625 6.35156 1.40625C6.35156 1.63828 6.35156 1.87031 6.35156 2.10938C6.11953 2.10938 5.8875 2.10938 5.64844 2.10938C5.64844 1.87734 5.64844 1.64531 5.64844 1.40625Z" fill="#0066AE"/>
</g>
<defs>
<clipPath id="clip0_4022_14919">
<rect width="12" height="12" fill="white"/>
</clipPath>
</defs>
</svg>
