<svg width="41" height="40" viewBox="0 0 41 40" fill="none" xmlns="http://www.w3.org/2000/svg">
<g clip-path="url(#clip0_1609_11382)">
<path d="M28.7031 21.0938C29.4766 21.0938 30.25 21.0938 31.0469 21.0938C31.0469 21.8672 31.0469 22.6406 31.0469 23.4375C32.5938 23.4375 34.1406 23.4375 35.7344 23.4375C35.7344 27.3047 35.7344 31.1719 35.7344 35.1562C31.8672 35.1562 28 35.1562 24.0156 35.1562C24.0156 33.6094 24.0156 32.0625 24.0156 30.4688C23.2422 30.4688 22.4688 30.4688 21.6719 30.4688C21.6719 29.6953 21.6719 28.9219 21.6719 28.125C22.4453 28.125 23.2188 28.125 24.0156 28.125C24.0156 27.3516 24.0156 26.5781 24.0156 25.7812C23.2422 25.7812 22.4688 25.7812 21.6719 25.7812C21.6719 25.0078 21.6719 24.2344 21.6719 23.4375C23.9922 23.4375 26.3125 23.4375 28.7031 23.4375C28.7031 22.6641 28.7031 21.8906 28.7031 21.0938ZM26.3594 25.7812C26.3594 28.1016 26.3594 30.4219 26.3594 32.8125C28.6797 32.8125 31 32.8125 33.3906 32.8125C33.3906 30.4922 33.3906 28.1719 33.3906 25.7812C31.0703 25.7812 28.75 25.7812 26.3594 25.7812Z" fill="#B3B3B3"/>
<path d="M5.26562 18.75C9.13281 18.75 13 18.75 16.9844 18.75C16.9844 19.5234 16.9844 20.2969 16.9844 21.0938C15.4375 21.0938 13.8906 21.0938 12.2969 21.0938C12.2969 23.4141 12.2969 25.7344 12.2969 28.125C13.0703 28.125 13.8438 28.125 14.6406 28.125C14.6406 28.8984 14.6406 29.6719 14.6406 30.4688C13.8672 30.4688 13.0938 30.4688 12.2969 30.4688C12.2969 31.2422 12.2969 32.0156 12.2969 32.8125C13.8438 32.8125 15.3906 32.8125 16.9844 32.8125C16.9844 32.0391 16.9844 31.2656 16.9844 30.4688C17.7578 30.4688 18.5312 30.4688 19.3281 30.4688C19.3281 31.2422 19.3281 32.0156 19.3281 32.8125C20.1016 32.8125 20.875 32.8125 21.6719 32.8125C21.6719 33.5859 21.6719 34.3594 21.6719 35.1562C17.8047 35.1562 13.9375 35.1562 9.95312 35.1562C9.95312 34.3828 9.95312 33.6094 9.95312 32.8125C9.17969 32.8125 8.40625 32.8125 7.60938 32.8125C7.60938 32.0391 7.60938 31.2656 7.60938 30.4688C8.38281 30.4688 9.15625 30.4688 9.95312 30.4688C9.95312 28.9219 9.95312 27.375 9.95312 25.7812C9.17969 25.7812 8.40625 25.7812 7.60938 25.7812C7.60938 25.0078 7.60938 24.2344 7.60938 23.4375C8.38281 23.4375 9.15625 23.4375 9.95312 23.4375C9.95312 22.6641 9.95312 21.8906 9.95312 21.0938C8.40625 21.0938 6.85938 21.0938 5.26562 21.0938C5.26562 20.3203 5.26562 19.5469 5.26562 18.75Z" fill="#B3B3B3"/>
<path d="M24.0156 4.6875C27.8828 4.6875 31.75 4.6875 35.7344 4.6875C35.7344 8.55469 35.7344 12.4219 35.7344 16.4062C34.1875 16.4062 32.6406 16.4062 31.0469 16.4062C31.0469 17.1797 31.0469 17.9531 31.0469 18.75C30.2734 18.75 29.5 18.75 28.7031 18.75C28.7031 17.9766 28.7031 17.2031 28.7031 16.4062C27.1562 16.4062 25.6094 16.4062 24.0156 16.4062C24.0156 12.5391 24.0156 8.67188 24.0156 4.6875ZM26.3594 7.03125C26.3594 9.35156 26.3594 11.6719 26.3594 14.0625C28.6797 14.0625 31 14.0625 33.3906 14.0625C33.3906 11.7422 33.3906 9.42188 33.3906 7.03125C31.0703 7.03125 28.75 7.03125 26.3594 7.03125Z" fill="#B3B3B3"/>
<path d="M5.26562 4.6875C9.13281 4.6875 13 4.6875 16.9844 4.6875C16.9844 5.46094 16.9844 6.23438 16.9844 7.03125C17.7578 7.03125 18.5312 7.03125 19.3281 7.03125C19.3281 7.80469 19.3281 8.57812 19.3281 9.375C18.5547 9.375 17.7812 9.375 16.9844 9.375C16.9844 11.6953 16.9844 14.0156 16.9844 16.4062C13.1172 16.4062 9.25 16.4062 5.26562 16.4062C5.26562 12.5391 5.26562 8.67188 5.26562 4.6875ZM7.60938 7.03125C7.60938 9.35156 7.60938 11.6719 7.60938 14.0625C9.92969 14.0625 12.25 14.0625 14.6406 14.0625C14.6406 11.7422 14.6406 9.42188 14.6406 7.03125C12.3203 7.03125 10 7.03125 7.60938 7.03125Z" fill="#B3B3B3"/>
<path d="M38.1562 30.625C38.9297 30.625 39.7031 30.625 40.5 30.625C40.5 33.7188 40.5 36.8125 40.5 40C37.4062 40 34.3125 40 31.125 40C31.125 39.2266 31.125 38.4531 31.125 37.6562C33.4453 37.6562 35.7656 37.6562 38.1562 37.6562C38.1562 35.3359 38.1562 33.0156 38.1562 30.625Z" fill="#B3B3B3"/>
<path d="M0.5 30.625C1.27344 30.625 2.04688 30.625 2.84375 30.625C2.84375 32.9453 2.84375 35.2656 2.84375 37.6562C5.16406 37.6562 7.48438 37.6562 9.875 37.6562C9.875 38.4297 9.875 39.2031 9.875 40C6.78125 40 3.6875 40 0.5 40C0.5 36.9062 0.5 33.8125 0.5 30.625Z" fill="#B3B3B3"/>
<path d="M31.125 0C34.2188 0 37.3125 0 40.5 0C40.5 3.09375 40.5 6.1875 40.5 9.375C39.7266 9.375 38.9531 9.375 38.1562 9.375C38.1562 7.05469 38.1562 4.73438 38.1562 2.34375C35.8359 2.34375 33.5156 2.34375 31.125 2.34375C31.125 1.57031 31.125 0.796875 31.125 0Z" fill="#B3B3B3"/>
<path d="M0.5 0C3.59375 0 6.6875 0 9.875 0C9.875 0.773438 9.875 1.54688 9.875 2.34375C7.55469 2.34375 5.23438 2.34375 2.84375 2.34375C2.84375 4.66406 2.84375 6.98438 2.84375 9.375C2.07031 9.375 1.29688 9.375 0.5 9.375C0.5 6.28125 0.5 3.1875 0.5 0Z" fill="#B3B3B3"/>
<path d="M19.3281 16.4062C20.1016 16.4062 20.875 16.4062 21.6719 16.4062C21.6719 17.1797 21.6719 17.9531 21.6719 18.75C23.9922 18.75 26.3125 18.75 28.7031 18.75C28.7031 19.5234 28.7031 20.2969 28.7031 21.0938C25.6094 21.0938 22.5156 21.0938 19.3281 21.0938C19.3281 19.5469 19.3281 18 19.3281 16.4062Z" fill="#B3B3B3"/>
<path d="M5.26562 25.7812C6.03906 25.7812 6.8125 25.7812 7.60938 25.7812C7.60938 27.3281 7.60938 28.875 7.60938 30.4688C6.83594 30.4688 6.0625 30.4688 5.26562 30.4688C5.26562 28.9219 5.26562 27.375 5.26562 25.7812Z" fill="#B3B3B3"/>
<path d="M14.6406 23.4375C15.4141 23.4375 16.1875 23.4375 16.9844 23.4375C16.9844 24.9844 16.9844 26.5312 16.9844 28.125C16.2109 28.125 15.4375 28.125 14.6406 28.125C14.6406 26.5781 14.6406 25.0312 14.6406 23.4375Z" fill="#B3B3B3"/>
<path d="M31.0469 18.75C32.5938 18.75 34.1406 18.75 35.7344 18.75C35.7344 19.5234 35.7344 20.2969 35.7344 21.0938C34.1875 21.0938 32.6406 21.0938 31.0469 21.0938C31.0469 20.3203 31.0469 19.5469 31.0469 18.75Z" fill="#B3B3B3"/>
<path d="M19.3281 9.375C20.1016 9.375 20.875 9.375 21.6719 9.375C21.6719 10.9219 21.6719 12.4688 21.6719 14.0625C20.8984 14.0625 20.125 14.0625 19.3281 14.0625C19.3281 12.5156 19.3281 10.9688 19.3281 9.375Z" fill="#B3B3B3"/>
<path d="M5.26562 32.8125C6.03906 32.8125 6.8125 32.8125 7.60938 32.8125C7.60938 33.5859 7.60938 34.3594 7.60938 35.1562C6.83594 35.1562 6.0625 35.1562 5.26562 35.1562C5.26562 34.3828 5.26562 33.6094 5.26562 32.8125Z" fill="#B3B3B3"/>
<path d="M28.7031 28.125C29.4766 28.125 30.25 28.125 31.0469 28.125C31.0469 28.8984 31.0469 29.6719 31.0469 30.4688C30.2734 30.4688 29.5 30.4688 28.7031 30.4688C28.7031 29.6953 28.7031 28.9219 28.7031 28.125Z" fill="#B3B3B3"/>
<path d="M19.3281 25.7812C20.1016 25.7812 20.875 25.7812 21.6719 25.7812C21.6719 26.5547 21.6719 27.3281 21.6719 28.125C20.8984 28.125 20.125 28.125 19.3281 28.125C19.3281 27.3516 19.3281 26.5781 19.3281 25.7812Z" fill="#B3B3B3"/>
<path d="M16.9844 21.0938C17.7578 21.0938 18.5312 21.0938 19.3281 21.0938C19.3281 21.8672 19.3281 22.6406 19.3281 23.4375C18.5547 23.4375 17.7812 23.4375 16.9844 23.4375C16.9844 22.6641 16.9844 21.8906 16.9844 21.0938Z" fill="#B3B3B3"/>
<path d="M28.7031 9.375C29.4766 9.375 30.25 9.375 31.0469 9.375C31.0469 10.1484 31.0469 10.9219 31.0469 11.7188C30.2734 11.7188 29.5 11.7188 28.7031 11.7188C28.7031 10.9453 28.7031 10.1719 28.7031 9.375Z" fill="#B3B3B3"/>
<path d="M9.95312 9.375C10.7266 9.375 11.5 9.375 12.2969 9.375C12.2969 10.1484 12.2969 10.9219 12.2969 11.7188C11.5234 11.7188 10.75 11.7188 9.95312 11.7188C9.95312 10.9453 9.95312 10.1719 9.95312 9.375Z" fill="#B3B3B3"/>
<path d="M19.3281 4.6875C20.1016 4.6875 20.875 4.6875 21.6719 4.6875C21.6719 5.46094 21.6719 6.23438 21.6719 7.03125C20.8984 7.03125 20.125 7.03125 19.3281 7.03125C19.3281 6.25781 19.3281 5.48438 19.3281 4.6875Z" fill="#B3B3B3"/>
</g>
<defs>
<clipPath id="clip0_1609_11382">
<rect width="40" height="40" fill="white" transform="translate(0.5)"/>
</clipPath>
</defs>
</svg>
