<svg width="243" height="81" viewBox="0 0 243 81" fill="none" xmlns="http://www.w3.org/2000/svg">
<g clip-path="url(#clip0_1609_11365)">
<path d="M170.91 7.29688C191.492 7.29688 212.074 7.29688 233.28 7.29688C233.28 12.1131 233.28 16.9293 233.28 21.8915C231.356 22.7582 230.272 22.6856 228.13 22.6371C227.401 22.6224 226.671 22.6077 225.919 22.5926C225.13 22.5729 224.341 22.5532 223.529 22.5328C222.722 22.5156 221.915 22.4984 221.084 22.4806C218.5 22.4246 215.917 22.3633 213.334 22.3019C211.585 22.2631 209.837 22.2246 208.088 22.1865C203.795 22.0921 199.503 21.993 195.21 21.8915C195.21 24.0588 195.21 26.2261 195.21 28.459C207.773 28.459 220.336 28.459 233.28 28.459C233.28 40.018 233.28 51.5769 233.28 63.4861C212.698 63.4861 192.116 63.4861 170.91 63.4861C170.91 58.6698 170.91 53.8536 170.91 48.8915C183.473 48.6507 196.036 48.4098 208.98 48.1617C208.98 46.7169 208.98 45.272 208.98 43.7834C190.136 43.4221 190.136 43.4221 170.91 43.0536C170.91 31.2539 170.91 19.4542 170.91 7.29688Z" fill="#1C1C1E"/>
<path d="M78.5703 7.29688C99.1524 7.29688 119.735 7.29688 140.94 7.29688C140.94 19.0966 140.94 30.8963 140.94 43.0536C130.115 43.4148 130.115 43.4148 119.07 43.7834C123.576 47.8935 128.032 51.9219 132.9 55.6814C135.706 57.9067 138.494 60.2066 140.94 62.7563C140.94 63.2379 140.94 63.7196 140.94 64.2158C137.582 64.2379 134.227 64.2262 130.87 64.1846C129.73 64.1751 128.59 64.1744 127.45 64.1832C117.983 64.2467 117.983 64.2467 114.7 62.3868C113.3 61.1163 112.133 59.8266 110.97 58.378C109.971 57.5739 108.961 56.7799 107.933 56.0063C103.579 52.6319 99.6145 48.9227 95.5803 45.2428C95.313 51.2631 95.0457 57.2834 94.7703 63.4861C89.4243 63.4861 84.0783 63.4861 78.5703 63.4861C78.5703 51.9271 78.5703 40.3682 78.5703 28.459C93.8064 28.459 109.043 28.459 124.74 28.459C124.74 26.2917 124.74 24.1244 124.74 21.8915C123.891 21.9076 123.891 21.9076 123.024 21.9241C117.696 22.0247 112.368 22.1217 107.04 22.2147C104.3 22.2627 101.561 22.312 98.8213 22.3645C95.6749 22.4247 92.5284 22.4789 89.3819 22.5328C88.3939 22.5526 87.4059 22.5723 86.3879 22.5926C85.0258 22.6146 85.0258 22.6146 83.6362 22.6371C82.8322 22.6516 82.0281 22.6662 81.1998 22.6812C79.3803 22.6212 79.3803 22.6212 78.5703 21.8915C78.5703 17.0753 78.5703 12.259 78.5703 7.29688Z" fill="#1C1C1E"/>
<path d="M9.71987 7.29688C14.7986 7.29688 19.8773 7.29688 25.1099 7.29688C25.1099 21.0231 25.1099 34.7493 25.1099 48.8915C32.8616 48.8915 40.6133 48.8915 48.5999 48.8915C48.5999 53.7077 48.5999 58.5239 48.5999 63.4861C43.0776 63.504 37.5553 63.5173 32.033 63.5261C30.1528 63.5298 28.2725 63.5348 26.3923 63.5411C23.6962 63.5499 21.0001 63.5541 18.304 63.5573C17.0346 63.563 17.0346 63.563 15.7395 63.5687C14.9612 63.5688 14.1828 63.5688 13.3809 63.5689C12.692 63.5705 12.0031 63.5721 11.2933 63.5738C9.71987 63.4861 9.71987 63.4861 8.90987 62.7563C8.82868 61.0508 8.79955 59.3669 8.80506 57.6611C8.80364 57.1283 8.80222 56.5956 8.80076 56.0467C8.79718 54.2773 8.79956 52.508 8.80229 50.7386C8.80175 49.5143 8.80096 48.2901 8.79994 47.0658C8.79875 44.4966 8.80049 41.9275 8.80427 39.3583C8.80888 36.0576 8.80623 32.757 8.80138 29.4563C8.79845 26.9273 8.79938 24.3983 8.80148 21.8693C8.80202 20.6519 8.80135 19.4345 8.79947 18.2172C8.79742 16.5187 8.80053 14.8203 8.80506 13.1219C8.80342 12.6139 8.80178 12.1059 8.80009 11.5825C8.81732 8.10999 8.81732 8.10999 9.71987 7.29688Z" fill="#1C1C1E"/>
<path d="M147.42 7.29688C153.033 7.29688 158.647 7.29688 164.43 7.29688C164.43 25.8393 164.43 44.3817 164.43 63.4861C158.817 63.4861 153.203 63.4861 147.42 63.4861C147.42 44.9436 147.42 26.4012 147.42 7.29688Z" fill="#1C1C1E"/>
<path d="M31.5898 7.29771C37.1121 7.27973 42.6344 7.26646 48.1567 7.25763C50.0369 7.25395 51.9172 7.24896 53.7974 7.24266C56.4935 7.23385 59.1896 7.22968 61.8857 7.22645C62.732 7.22269 63.5783 7.21892 64.4502 7.21504C65.2285 7.21498 66.0069 7.21493 66.8088 7.21487C67.4977 7.21325 68.1866 7.21163 68.8964 7.20996C70.4698 7.29771 70.4698 7.29771 71.2798 8.02744C71.3553 9.12509 71.375 10.2259 71.3718 11.3257C71.3717 12.0269 71.3717 12.7281 71.3716 13.4505C71.3674 14.213 71.3633 14.9754 71.3589 15.7609C71.3578 16.5373 71.3567 17.3137 71.3555 18.1137C71.3509 20.6047 71.3408 23.0956 71.3305 25.5866C71.3264 27.2707 71.3227 28.9549 71.3194 30.6391C71.3104 34.7776 71.2965 38.916 71.2798 43.0545C65.9338 43.0545 60.5878 43.0545 55.0798 43.0545C55.0798 36.071 55.0798 29.0874 55.0798 21.8923C47.3281 21.8923 39.5764 21.8923 31.5898 21.8923C31.5898 17.0761 31.5898 12.2599 31.5898 7.29771Z" fill="#1C1C1E"/>
<path d="M55.0801 48.8916C60.4261 48.8916 65.7721 48.8916 71.2801 48.8916C71.2801 59.4873 71.2801 70.083 71.2801 80.9997C65.9341 80.9997 60.5881 80.9997 55.0801 80.9997C55.0801 70.404 55.0801 59.8084 55.0801 48.8916Z" fill="#1C1C1E"/>
<path d="M238.95 44.5137C240.286 44.5137 241.623 44.5137 243 44.5137C243 53.9053 243 63.2969 243 72.9731C240.438 74.1273 237.684 73.8064 234.871 73.7998C233.907 73.8008 233.907 73.8008 232.923 73.8019C231.563 73.8024 230.203 73.801 228.844 73.798C226.755 73.7941 224.666 73.798 222.577 73.8026C221.259 73.8021 219.94 73.8012 218.621 73.7998C217.678 73.802 217.678 73.802 216.716 73.8043C212.313 73.7867 212.313 73.7867 211.41 72.9731C211.309 71.1488 211.309 71.1488 211.41 69.3245C212.969 67.92 215.84 68.4099 217.969 68.3639C219.545 68.3221 219.545 68.3221 221.152 68.2796C222.498 68.2481 223.844 68.2167 225.231 68.1843C231.621 68.0262 231.621 68.0262 238.14 67.865C238.407 60.1591 238.675 52.4531 238.95 44.5137Z" fill="#1C1C1E"/>
<path d="M0 0C10.4247 0 20.8494 0 31.59 0C31.59 1.44486 31.59 2.88973 31.59 4.37838C18.3587 4.73959 18.3587 4.73959 4.86 5.10811C4.5927 12.8141 4.3254 20.52 4.05 28.4595C2.7135 28.4595 1.377 28.4595 0 28.4595C0 19.0678 0 9.67622 0 0Z" fill="#1C1C1E"/>
<path d="M31.5898 28.459C37.2031 28.459 42.8164 28.459 48.5998 28.459C48.5998 33.2752 48.5998 38.0914 48.5998 43.0536C42.9865 43.0536 37.3732 43.0536 31.5898 43.0536C31.5898 38.2374 31.5898 33.4211 31.5898 28.459ZM37.2598 32.8374C36.9925 34.7638 36.7252 36.6903 36.4498 38.6752C38.8555 38.6752 41.2612 38.6752 43.7398 38.6752C43.7398 36.7487 43.7398 34.8222 43.7398 32.8374C41.6014 32.8374 39.463 32.8374 37.2598 32.8374Z" fill="#1C1C1E"/>
</g>
<defs>
<clipPath id="clip0_1609_11365">
<rect width="243" height="81" fill="white"/>
</clipPath>
</defs>
</svg>
