<svg width="18" height="10" viewBox="0 0 18 10" fill="none" xmlns="http://www.w3.org/2000/svg">
<g clip-path="url(#clip0_4028_5574)">
<path d="M12.66 0.900879C14.1846 0.900879 15.7092 0.900879 17.28 0.900879C17.28 1.49547 17.28 2.09007 17.28 2.70268C17.1375 2.80969 17.0572 2.80072 16.8986 2.79473C16.8445 2.79292 16.7905 2.79111 16.7348 2.78924C16.6763 2.78681 16.6179 2.78437 16.5577 2.78186C16.4979 2.77973 16.4382 2.77761 16.3766 2.77542C16.1852 2.7685 15.9939 2.76094 15.8025 2.75336C15.673 2.74856 15.5435 2.74381 15.4139 2.7391C15.096 2.72746 14.778 2.71522 14.46 2.70268C14.46 2.97025 14.46 3.23782 14.46 3.51349C15.3906 3.51349 16.3212 3.51349 17.28 3.51349C17.28 4.94052 17.28 6.36755 17.28 7.83782C15.7554 7.83782 14.2308 7.83782 12.66 7.83782C12.66 7.24322 12.66 6.64863 12.66 6.03601C13.5906 6.00628 14.5212 5.97655 15.48 5.94592C15.48 5.76755 15.48 5.58917 15.48 5.40538C14.0841 5.36079 14.0841 5.36079 12.66 5.31529C12.66 3.85854 12.66 2.40178 12.66 0.900879Z" fill="#0066AE"/>
<path d="M5.81995 0.900879C7.34455 0.900879 8.86915 0.900879 10.4399 0.900879C10.4399 2.35764 10.4399 3.81439 10.4399 5.31529C9.63805 5.35989 9.63805 5.35989 8.81995 5.40538C9.15372 5.91281 9.48377 6.41014 9.8444 6.87427C10.0522 7.14901 10.2587 7.43295 10.4399 7.74773C10.4399 7.80719 10.4399 7.86664 10.4399 7.92791C10.1912 7.93063 9.94268 7.9292 9.69397 7.92406C9.60954 7.92288 9.5251 7.9228 9.44067 7.92388C8.73938 7.93172 8.73938 7.93172 8.49625 7.70211C8.39255 7.54525 8.30605 7.38603 8.21995 7.20719C8.14592 7.10792 8.07113 7.0099 7.99495 6.91439C7.67241 6.49779 7.37878 6.03987 7.07995 5.58556C7.06015 6.32881 7.04035 7.07205 7.01995 7.83782C6.62395 7.83782 6.22795 7.83782 5.81995 7.83782C5.81995 6.41079 5.81995 4.98376 5.81995 3.51349C6.94855 3.51349 8.07715 3.51349 9.23995 3.51349C9.23995 3.24592 9.23995 2.97836 9.23995 2.70268C9.177 2.70467 9.177 2.70467 9.11279 2.70671C8.71813 2.71912 8.32346 2.7311 7.92879 2.74259C7.72586 2.74851 7.52294 2.7546 7.32002 2.76108C7.08695 2.76851 6.85388 2.77521 6.62081 2.78186C6.54762 2.7843 6.47443 2.78673 6.39903 2.78924C6.29813 2.79196 6.29813 2.79196 6.1952 2.79473C6.13564 2.79653 6.07608 2.79833 6.01472 2.80018C5.87995 2.79277 5.87995 2.79277 5.81995 2.70268C5.81995 2.10809 5.81995 1.51349 5.81995 0.900879Z" fill="#0066AE"/>
<path d="M0.719959 0.900879C1.09616 0.900879 1.47236 0.900879 1.85996 0.900879C1.85996 2.59547 1.85996 4.29007 1.85996 6.03601C2.43416 6.03601 3.00836 6.03601 3.59996 6.03601C3.59996 6.63061 3.59996 7.2252 3.59996 7.83782C3.1909 7.84004 2.78185 7.84167 2.37279 7.84276C2.23351 7.84322 2.09423 7.84383 1.95495 7.84461C1.75524 7.8457 1.55553 7.84621 1.35582 7.84661C1.26179 7.84731 1.26179 7.84731 1.16586 7.84802C1.1082 7.84803 1.05055 7.84804 0.991145 7.84804C0.940116 7.84824 0.889086 7.84844 0.83651 7.84865C0.719959 7.83782 0.719959 7.83782 0.659959 7.74773C0.653945 7.53717 0.651787 7.32928 0.652195 7.11868C0.65209 7.05291 0.651985 6.98714 0.651876 6.91937C0.651611 6.70093 0.651788 6.4825 0.65199 6.26405C0.65195 6.11291 0.651891 5.96177 0.651816 5.81062C0.651727 5.49344 0.651857 5.17626 0.652136 4.85908C0.652478 4.45159 0.652282 4.04411 0.651922 3.63662C0.651706 3.32439 0.651774 3.01217 0.65193 2.69994C0.65197 2.54965 0.65192 2.39936 0.651781 2.24906C0.651629 2.03938 0.65186 1.8297 0.652195 1.62002C0.652074 1.5573 0.651952 1.49459 0.651827 1.42997C0.653103 1.00126 0.653103 1.00126 0.719959 0.900879Z" fill="#0066AE"/>
<path d="M10.92 0.900879C11.3358 0.900879 11.7516 0.900879 12.18 0.900879C12.18 3.19007 12.18 5.47926 12.18 7.83782C11.7642 7.83782 11.3484 7.83782 10.92 7.83782C10.92 5.54863 10.92 3.25944 10.92 0.900879Z" fill="#0066AE"/>
<path d="M2.33997 0.90097C2.74902 0.89875 3.15808 0.897112 3.56714 0.896022C3.70642 0.895567 3.84569 0.894952 3.98497 0.894174C4.18468 0.893086 4.38439 0.892571 4.58411 0.892173C4.64679 0.891708 4.70948 0.891243 4.77407 0.890764C4.83172 0.890757 4.88938 0.89075 4.94878 0.890743C4.99981 0.890543 5.05084 0.890343 5.10341 0.890137C5.21997 0.90097 5.21997 0.90097 5.27997 0.991061C5.28555 1.12657 5.28701 1.26248 5.28678 1.39825C5.28677 1.48482 5.28677 1.57139 5.28676 1.66058C5.28645 1.7547 5.28614 1.84883 5.28583 1.9458C5.28574 2.04166 5.28566 2.13752 5.28557 2.23628C5.28523 2.5438 5.28448 2.85133 5.28372 3.15885C5.28342 3.36678 5.28314 3.5747 5.2829 3.78262C5.28223 4.29355 5.2812 4.80446 5.27997 5.31538C4.88397 5.31538 4.48797 5.31538 4.07997 5.31538C4.07997 4.45322 4.07997 3.59106 4.07997 2.70277C3.50577 2.70277 2.93157 2.70277 2.33997 2.70277C2.33997 2.10818 2.33997 1.51358 2.33997 0.90097Z" fill="#0066AE"/>
<path d="M4.07996 6.03613C4.47596 6.03613 4.87196 6.03613 5.27996 6.03613C5.27996 7.34424 5.27996 8.65235 5.27996 10.0001C4.88396 10.0001 4.48796 10.0001 4.07996 10.0001C4.07996 8.69199 4.07996 7.38388 4.07996 6.03613Z" fill="#0066AE"/>
<path d="M17.7 5.49561C17.799 5.49561 17.898 5.49561 18 5.49561C18 6.65507 18 7.81452 18 9.00912C17.8103 9.1516 17.6063 9.11199 17.3979 9.11117C17.3265 9.1113 17.3265 9.1113 17.2536 9.11144C17.1529 9.1115 17.0522 9.11133 16.9514 9.11095C16.7967 9.11047 16.642 9.11095 16.4873 9.11153C16.3896 9.11147 16.2919 9.11135 16.1942 9.11117C16.1243 9.11145 16.1243 9.11145 16.0531 9.11173C15.7269 9.10957 15.7269 9.10957 15.66 9.00912C15.6525 8.78389 15.6525 8.78389 15.66 8.55867C15.7755 8.38527 15.9882 8.44576 16.1459 8.44007C16.2626 8.43492 16.2626 8.43492 16.3817 8.42967C16.4814 8.42579 16.5811 8.4219 16.6838 8.4179C17.1571 8.39839 17.1571 8.39839 17.64 8.37849C17.6598 7.42714 17.6796 6.47579 17.7 5.49561Z" fill="#0066AE"/>
<path d="M0 0C0.7722 0 1.5444 0 2.34 0C2.34 0.178378 2.34 0.356757 2.34 0.540541C1.3599 0.585135 1.3599 0.585135 0.36 0.630631C0.3402 1.58198 0.3204 2.53333 0.3 3.51351C0.201 3.51351 0.102 3.51351 0 3.51351C0 2.35405 0 1.19459 0 0Z" fill="#0066AE"/>
<path d="M2.33997 3.51367C2.75577 3.51367 3.17157 3.51367 3.59997 3.51367C3.59997 4.10827 3.59997 4.70286 3.59997 5.31547C3.18417 5.31547 2.76837 5.31547 2.33997 5.31547C2.33997 4.72088 2.33997 4.12628 2.33997 3.51367ZM2.75997 4.05421C2.74017 4.29205 2.72037 4.52989 2.69997 4.77493C2.87817 4.77493 3.05637 4.77493 3.23997 4.77493C3.23997 4.5371 3.23997 4.29926 3.23997 4.05421C3.08157 4.05421 2.92317 4.05421 2.75997 4.05421Z" fill="#0066AE"/>
</g>
<defs>
<clipPath id="clip0_4028_5574">
<rect width="18" height="10" fill="white"/>
</clipPath>
</defs>
</svg>
