<svg width="48" height="48" viewBox="0 0 48 48" fill="none" xmlns="http://www.w3.org/2000/svg">
<path fill-rule="evenodd" clip-rule="evenodd" d="M45.5 27.9102H3.5C2.672 27.9102 2 27.2382 2 26.4102C2 25.5822 2.672 24.9102 3.5 24.9102H45.5C46.328 24.9102 47 25.5822 47 26.4102C47 27.2382 46.328 27.9102 45.5 27.9102Z" fill="#0066AE"/>
<path fill-rule="evenodd" clip-rule="evenodd" d="M41.7598 19.49C40.9318 19.49 40.2598 18.818 40.2598 17.99V14.962C40.2598 11.676 37.5838 9 34.2938 9H31.8838C31.0558 9 30.3838 8.328 30.3838 7.5C30.3838 6.672 31.0558 6 31.8838 6H34.2938C39.2378 6 43.2598 10.022 43.2598 14.962V17.99C43.2598 18.818 42.5878 19.49 41.7598 19.49Z" fill="#0066AE"/>
<path fill-rule="evenodd" clip-rule="evenodd" d="M7.24023 19.49C6.41223 19.49 5.74023 18.818 5.74023 17.99V14.962C5.74023 10.022 9.76223 6 14.7062 6H17.1782C18.0062 6 18.6782 6.672 18.6782 7.5C18.6782 8.328 18.0062 9 17.1782 9H14.7062C11.4162 9 8.74023 11.676 8.74023 14.962V17.99C8.74023 18.818 8.06823 19.49 7.24023 19.49Z" fill="#0066AE"/>
<path fill-rule="evenodd" clip-rule="evenodd" d="M34.294 43.5212H31.884C31.056 43.5212 30.384 42.8492 30.384 42.0212C30.384 41.1932 31.056 40.5212 31.884 40.5212H34.294C37.584 40.5212 40.26 37.8452 40.26 34.5572V26.4072C40.26 25.5792 40.932 24.9072 41.76 24.9072C42.588 24.9072 43.26 25.5792 43.26 26.4072V34.5572C43.26 39.4992 39.238 43.5212 34.294 43.5212Z" fill="#0066AE"/>
<path fill-rule="evenodd" clip-rule="evenodd" d="M17.1777 43.5212H14.7057C9.76175 43.5212 5.73975 39.4992 5.73975 34.5572V26.4072C5.73975 25.5792 6.41175 24.9072 7.23975 24.9072C8.06775 24.9072 8.73975 25.5792 8.73975 26.4072V34.5572C8.73975 37.8452 11.4157 40.5212 14.7057 40.5212H17.1777C18.0057 40.5212 18.6777 41.1932 18.6777 42.0212C18.6777 42.8492 18.0057 43.5212 17.1777 43.5212Z" fill="#0066AE"/>
</svg>
