<svg width="41" height="40" viewBox="0 0 41 40" fill="none" xmlns="http://www.w3.org/2000/svg">
    <path d="M34.0299 13.8333V10.75C34.0299 9.52337 33.5427 8.34699 32.6753 7.47963C31.808 6.61228 30.6316 6.125 29.4049 6.125H24.7799M24.7799 33.875H29.4049C30.6316 33.875 31.808 33.3877 32.6753 32.5204C33.5427 31.653 34.0299 30.4766 34.0299 29.25V26.1667M6.27995 26.1667V29.25C6.27995 30.4766 6.76722 31.653 7.63458 32.5204C8.50193 33.3877 9.67832 33.875 10.9049 33.875H15.5299M15.5299 6.125H10.9049C9.67832 6.125 8.50193 6.61228 7.63458 7.47963C6.76722 8.34699 6.27995 9.52337 6.27995 10.75V13.8333M4.73828 20H35.5716" stroke="#B3B3B3" stroke-width="1.5" stroke-linecap="round" stroke-linejoin="round"/>
</svg>
