<svg width="11" height="11" viewBox="0 0 11 11" fill="none" xmlns="http://www.w3.org/2000/svg">
<g id="Search">
<g id="Group 3">
<mask id="mask0_778_397" style="mask-type:luminance" maskUnits="userSpaceOnUse" x="0" y="0" width="10" height="11">
<path id="Clip 2" fill-rule="evenodd" clip-rule="evenodd" d="M0 0.5H9.7384V10.2385H0V0.5Z" fill="white"/>
</mask>
<g mask="url(#mask0_778_397)">
<path id="Fill 1" fill-rule="evenodd" clip-rule="evenodd" d="M4.86938 1.25C2.59788 1.25 0.749878 3.0975 0.749878 5.369C0.749878 7.6405 2.59788 9.4885 4.86938 9.4885C7.14038 9.4885 8.98838 7.6405 8.98838 5.369C8.98838 3.0975 7.14038 1.25 4.86938 1.25ZM4.86938 10.2385C2.18438 10.2385 -0.00012207 8.054 -0.00012207 5.369C-0.00012207 2.684 2.18438 0.5 4.86938 0.5C7.55438 0.5 9.73838 2.684 9.73838 5.369C9.73838 8.054 7.55438 10.2385 4.86938 10.2385Z" fill="#1C1C1E"/>
</g>
</g>
<g id="Group 6">
<mask id="mask1_778_397" style="mask-type:luminance" maskUnits="userSpaceOnUse" x="7" y="8" width="4" height="3">
<path id="Clip 5" fill-rule="evenodd" clip-rule="evenodd" d="M7.62 8.35352H10.132V10.8609H7.62V8.35352Z" fill="white"/>
</mask>
<g mask="url(#mask1_778_397)">
<path id="Fill 4" fill-rule="evenodd" clip-rule="evenodd" d="M9.75712 10.8609C9.66162 10.8609 9.56562 10.8244 9.49212 10.7514L7.73012 8.99439C7.58362 8.84789 7.58312 8.61039 7.72962 8.46389C7.87562 8.31639 8.11312 8.31739 8.26012 8.46289L10.0221 10.2204C10.1686 10.3669 10.1691 10.6039 10.0226 10.7504C9.94962 10.8244 9.85312 10.8609 9.75712 10.8609Z" fill="#1C1C1E"/>
</g>
</g>
</g>
</svg>
