<svg width="22" height="24" viewBox="0 0 22 24" fill="none" xmlns="http://www.w3.org/2000/svg">
<g id="Setting">
<g id="Group 3">
<mask id="mask0_778_318" style="mask-type:luminance" maskUnits="userSpaceOnUse" x="0" y="0" width="22" height="24">
<path id="Clip 2" fill-rule="evenodd" clip-rule="evenodd" d="M0.166748 0.667236H21.0587V23.115H0.166748V0.667236Z" fill="white"/>
</mask>
<g mask="url(#mask0_778_318)">
<path id="Fill 1" fill-rule="evenodd" clip-rule="evenodd" d="M5.80235 17.3939C6.05043 17.3939 6.29852 17.4253 6.54118 17.4903C7.27352 17.6875 7.90943 18.1772 8.28643 18.8347C8.53127 19.2475 8.66668 19.7296 8.67102 20.2214C8.67102 20.9256 9.23652 21.49 9.93202 21.49H11.2894C11.9817 21.49 12.5472 20.9288 12.5504 20.2366C12.5461 19.4717 12.8451 18.7448 13.3922 18.1977C13.9317 17.6582 14.6857 17.3343 15.4397 17.356C15.9337 17.3679 16.4093 17.5012 16.8285 17.7395C17.4319 18.0851 18.2022 17.8792 18.551 17.2834L19.2704 16.0842C19.4307 15.8079 19.4773 15.4612 19.3917 15.1417C19.3072 14.8221 19.0949 14.5447 18.8089 14.3812C18.1394 13.9955 17.6616 13.3737 17.4634 12.6283C17.2673 11.8971 17.3745 11.0987 17.7569 10.4411C18.0061 10.0077 18.3712 9.64265 18.8089 9.39132C19.396 9.0479 19.6019 8.27982 19.2606 7.68182C19.2465 7.65799 19.2335 7.63307 19.2227 7.60707L18.5879 6.5064C18.2423 5.90515 17.4731 5.69824 16.8697 6.04165C16.2175 6.42732 15.4419 6.53782 14.6965 6.34174C13.9523 6.1489 13.3283 5.67765 12.9394 5.01249C12.6902 4.59649 12.5548 4.11224 12.5504 3.61932C12.5602 3.24882 12.4302 2.91624 12.194 2.67249C11.9589 2.42982 11.6285 2.29224 11.2894 2.29224H9.93202C9.59618 2.29224 9.28202 2.42332 9.04477 2.65949C8.8086 2.89674 8.67968 3.21199 8.68185 3.54782C8.6591 5.13165 7.36452 6.40674 5.79693 6.40674C5.29427 6.40132 4.81002 6.2659 4.38968 6.01457C3.79927 5.67874 3.02793 5.88565 2.68235 6.4869L1.94893 7.69265C1.6131 8.27549 1.81893 9.04574 2.41693 9.39349C3.30418 9.90699 3.85777 10.8647 3.85777 11.8917C3.85777 12.9187 3.30418 13.8752 2.41477 14.3898C1.82002 14.7343 1.61418 15.5002 1.95868 16.0961L2.64227 17.2747C2.81127 17.5792 3.08752 17.7991 3.4071 17.889C3.7256 17.9778 4.0766 17.9399 4.3691 17.7774C4.79918 17.525 5.29968 17.3939 5.80235 17.3939ZM11.2894 23.115H9.93202C8.3406 23.115 7.04602 21.8215 7.04602 20.2301C7.04385 20.034 6.98752 19.8303 6.88243 19.6537C6.71235 19.3569 6.43718 19.1446 6.11977 19.0601C5.80452 18.9756 5.45893 19.0222 5.1751 19.1868C4.49477 19.566 3.69418 19.6581 2.96185 19.4522C2.2306 19.2453 1.59902 18.7427 1.22852 18.0764L0.551434 16.9097C-0.240483 15.536 0.230767 13.7756 1.60227 12.9826C1.99118 12.7583 2.23277 12.3402 2.23277 11.8917C2.23277 11.4432 1.99118 11.0239 1.60227 10.7997C0.229684 10.0023 -0.240483 8.23757 0.55035 6.8639L1.28485 5.65815C2.06593 4.29965 3.83177 3.82082 5.20868 4.61165C5.3961 4.72324 5.59977 4.77957 5.80668 4.78174C6.4816 4.78174 7.04602 4.2249 7.05685 3.54024C7.05252 2.78515 7.35043 2.0604 7.89318 1.51332C8.4381 0.96732 9.16177 0.667236 9.93202 0.667236H11.2894C12.0651 0.667236 12.8191 0.985736 13.3597 1.53932C13.8992 2.09615 14.1971 2.8599 14.1744 3.63449C14.1765 3.8089 14.2339 4.0104 14.3379 4.18699C14.5102 4.47949 14.7821 4.68532 15.1049 4.76982C15.4278 4.84999 15.7658 4.80665 16.0529 4.63657C17.4395 3.84465 19.2043 4.31915 19.9962 5.69499L20.6711 6.8639C20.6884 6.89532 20.7036 6.92565 20.7166 6.95707C21.4338 8.31232 20.9549 10.0186 19.6224 10.7975C19.4285 10.9091 19.2714 11.0651 19.1631 11.2536C18.9952 11.545 18.9486 11.8917 19.0331 12.2102C19.1198 12.5352 19.3267 12.8049 19.6181 12.9717C20.2757 13.3498 20.7664 13.9868 20.9625 14.7224C21.1586 15.4569 21.0514 16.2542 20.6689 16.9118L19.9496 18.11C19.1577 19.4707 17.3929 19.9419 16.0204 19.1489C15.8373 19.0438 15.626 18.9864 15.4159 18.981H15.4094C15.0963 18.981 14.7745 19.1142 14.5405 19.3472C14.3033 19.5844 14.1733 19.9007 14.1754 20.2366C14.1679 21.828 12.8733 23.115 11.2894 23.115Z" fill="#0066AE"/>
</g>
</g>
<path id="Fill 4" fill-rule="evenodd" clip-rule="evenodd" d="M10.6157 9.84753C9.48901 9.84753 8.57251 10.7651 8.57251 11.8918C8.57251 13.0185 9.48901 13.9339 10.6157 13.9339C11.7423 13.9339 12.6588 13.0185 12.6588 11.8918C12.6588 10.7651 11.7423 9.84753 10.6157 9.84753ZM10.6157 15.5589C8.59309 15.5589 6.94751 13.9144 6.94751 11.8918C6.94751 9.8692 8.59309 8.22253 10.6157 8.22253C12.6383 8.22253 14.2838 9.8692 14.2838 11.8918C14.2838 13.9144 12.6383 15.5589 10.6157 15.5589Z" fill="#0066AE"/>
</g>
</svg>
