<svg width="34" height="34" viewBox="0 0 34 34" fill="none" xmlns="http://www.w3.org/2000/svg">
<path d="M12.2551 6.01301C14.3667 2.22634 15.4217 0.333008 17.0001 0.333008C18.5784 0.333008 19.6334 2.22634 21.7451 6.01301L22.2917 6.99301C22.8917 8.06967 23.1917 8.60801 23.6584 8.96301C24.1251 9.31801 24.7084 9.44967 25.8751 9.71301L26.9351 9.95301C31.0351 10.8813 33.0834 11.3447 33.5717 12.913C34.0584 14.4797 32.6617 16.1147 29.8667 19.383L29.1434 20.228C28.3501 21.1563 27.9517 21.6213 27.7734 22.1947C27.5951 22.7697 27.6551 23.3897 27.7751 24.628L27.8851 25.7563C28.3067 30.118 28.5184 32.298 27.2417 33.2663C25.9651 34.2363 24.0451 33.3513 20.2084 31.5847L19.2134 31.128C18.1234 30.6247 17.5784 30.3747 17.0001 30.3747C16.4217 30.3747 15.8767 30.6247 14.7867 31.128L13.7934 31.5847C9.95507 33.3513 8.03507 34.2347 6.76007 33.268C5.48173 32.298 5.6934 30.118 6.11507 25.7563L6.22507 24.6297C6.34507 23.3897 6.40507 22.7697 6.22507 22.1963C6.0484 21.6213 5.65007 21.1563 4.85673 20.2297L4.1334 19.383C1.3384 16.1163 -0.0582672 14.4813 0.428399 12.913C0.916733 11.3447 2.96673 10.8797 7.06673 9.95301L8.12673 9.71301C9.29173 9.44967 9.8734 9.31801 10.3417 8.96301C10.8084 8.60801 11.1084 8.06967 11.7084 6.99301L12.2551 6.01301Z" fill="#B3B3B3"/>
</svg>
