<svg width="12" height="12" viewBox="0 0 12 12" fill="none" xmlns="http://www.w3.org/2000/svg">
<path d="M10.021 0.625156C10.072 0.674188 10.1215 0.724362 10.1708 0.775227C10.1895 0.79424 10.2082 0.813253 10.2275 0.832841C10.289 0.895347 10.3501 0.958166 10.4112 1.02102C10.454 1.06483 10.4969 1.10863 10.5397 1.15242C10.6292 1.24409 10.7186 1.33593 10.8079 1.42788C10.9221 1.54548 11.0368 1.66254 11.1517 1.77947C11.2402 1.86972 11.3283 1.9603 11.4164 2.05097C11.4586 2.09427 11.5009 2.13745 11.5433 2.18051C11.6025 2.24083 11.6614 2.30158 11.7201 2.36247C11.7375 2.38002 11.755 2.39758 11.773 2.41567C11.9094 2.55863 11.9996 2.71969 12 2.92693C11.9865 3.17916 11.8588 3.35612 11.6889 3.52748C11.6704 3.54675 11.6518 3.56601 11.6327 3.58586C11.5719 3.64886 11.5106 3.71132 11.4493 3.77377C11.4066 3.81768 11.3639 3.86162 11.3213 3.90558C11.2321 3.99738 11.1427 4.08892 11.053 4.18027C10.9383 4.2972 10.8242 4.41469 10.7103 4.53238C10.6224 4.62309 10.5341 4.71352 10.4459 4.80386C10.4037 4.84708 10.3616 4.89038 10.3196 4.93376C10.2608 4.99436 10.2016 5.05459 10.1424 5.11472C10.1166 5.14149 10.1166 5.14149 10.0903 5.16881C9.94085 5.31912 9.79785 5.40129 9.58251 5.40159C9.39992 5.39596 9.2747 5.35519 9.13995 5.22748C8.99935 5.07077 8.95982 4.92374 8.95485 4.71391C8.98614 4.48913 9.08015 4.35793 9.23474 4.20562C9.25263 4.18742 9.27053 4.16923 9.28897 4.15048C9.34568 4.09298 9.40286 4.036 9.46006 3.97902C9.49882 3.9399 9.53754 3.90074 9.57623 3.86156C9.67067 3.76604 9.76554 3.67098 9.86065 3.57616C9.84083 3.57615 9.82102 3.57613 9.8006 3.57611C8.62641 3.57508 7.45221 3.57345 6.27802 3.57105C6.13704 3.57076 5.99607 3.57047 5.8551 3.57019C5.82703 3.57014 5.79897 3.57008 5.77005 3.57002C5.31557 3.56913 4.86108 3.56864 4.40659 3.5683C3.94028 3.56795 3.47397 3.56716 3.00766 3.56596C2.71989 3.56524 2.43214 3.56485 2.14437 3.5649C1.94707 3.5649 1.74977 3.56448 1.55247 3.56373C1.43862 3.56331 1.32477 3.56307 1.21092 3.56334C1.10663 3.56358 1.00236 3.56328 0.898074 3.56257C0.842591 3.56233 0.787106 3.56266 0.731624 3.563C0.490172 3.56061 0.332155 3.53229 0.153965 3.35316C0.0421039 3.18229 -0.02503 3.00896 0.00877583 2.79924C0.0687881 2.58366 0.180989 2.45186 0.365672 2.33716C0.444067 2.3034 0.504689 2.30272 0.589679 2.30253C0.622758 2.30231 0.655836 2.3021 0.689917 2.30188C0.744477 2.30196 0.744477 2.30196 0.80014 2.30205C0.839142 2.3019 0.878143 2.30173 0.917145 2.30154C1.02443 2.30109 1.13172 2.30099 1.23901 2.30095C1.35466 2.30084 1.47031 2.30041 1.58597 2.30001C1.78638 2.29937 1.9868 2.29894 2.18721 2.29865C2.47698 2.29823 2.76675 2.29749 3.05652 2.29668C3.52663 2.29537 3.99674 2.29432 4.46685 2.29342C4.92356 2.29256 5.38028 2.29157 5.83699 2.29042C5.87921 2.29031 5.87921 2.29031 5.92228 2.2902C6.06346 2.28985 6.20465 2.28949 6.34584 2.28913C7.51744 2.28615 8.68904 2.28358 9.86065 2.28128C9.82592 2.24671 9.82592 2.24671 9.79048 2.21143C9.70395 2.12509 9.6179 2.03826 9.53198 1.95128C9.49486 1.91384 9.45761 1.87652 9.42024 1.83935C9.36626 1.78562 9.31277 1.73142 9.25934 1.67712C9.24277 1.66083 9.22621 1.64455 9.20914 1.62776C9.06124 1.4758 8.96356 1.30352 8.95278 1.08532C8.96469 0.877852 9.01888 0.746453 9.16619 0.601537C9.436 0.373432 9.75419 0.395914 10.021 0.625156Z" fill="#0066AE"/>
<path d="M2.70961 6.66104C2.85077 6.74654 2.94724 6.86417 3.01749 7.01504C3.05836 7.225 3.04547 7.39911 2.95101 7.59366C2.89532 7.66888 2.8316 7.7332 2.76526 7.79851C2.74737 7.81669 2.72947 7.83487 2.71103 7.8536C2.65432 7.91106 2.59714 7.96799 2.53994 8.02492C2.50118 8.06401 2.46246 8.10313 2.42377 8.14229C2.32933 8.23773 2.23446 8.3327 2.13935 8.42744C2.15917 8.42746 2.17898 8.42747 2.19939 8.42749C3.37359 8.42852 4.54779 8.43015 5.72198 8.43255C5.86296 8.43284 6.00393 8.43313 6.1449 8.43341C6.187 8.43349 6.187 8.43349 6.22995 8.43357C6.68443 8.43447 7.13892 8.43495 7.59341 8.43529C8.05972 8.43565 8.52603 8.43644 8.99234 8.43763C9.28011 8.43836 9.56786 8.43874 9.85563 8.43869C10.0529 8.43869 10.2502 8.43911 10.4475 8.43986C10.5614 8.44029 10.6752 8.44052 10.7891 8.44026C10.8934 8.44002 10.9976 8.44031 11.1019 8.44102C11.1574 8.44126 11.2129 8.44094 11.2684 8.44059C11.5098 8.44299 11.6678 8.47128 11.846 8.65026C11.9579 8.82098 12.025 8.99417 11.9912 9.20372C11.9312 9.41912 11.819 9.55081 11.6343 9.66541C11.5559 9.69914 11.4953 9.69982 11.4103 9.70001C11.3607 9.70033 11.3607 9.70033 11.3101 9.70066C11.2555 9.70058 11.2555 9.70058 11.1999 9.70049C11.1609 9.70064 11.1219 9.70081 11.0829 9.701C10.9756 9.70145 10.8683 9.70155 10.761 9.70159C10.6453 9.7017 10.5297 9.70213 10.414 9.70253C10.2136 9.70317 10.0132 9.7036 9.81279 9.70389C9.52302 9.70431 9.23325 9.70505 8.94348 9.70586C8.47337 9.70716 8.00326 9.70822 7.53315 9.70911C7.07644 9.70998 6.61972 9.71096 6.16301 9.71211C6.12079 9.71222 6.12079 9.71222 6.07772 9.71233C5.93653 9.71268 5.79535 9.71304 5.65416 9.7134C4.48256 9.71638 3.31096 9.71894 2.13935 9.72124C2.17408 9.75579 2.17408 9.75579 2.20952 9.79103C2.29605 9.8773 2.3821 9.96406 2.46802 10.051C2.50514 10.0884 2.54238 10.1257 2.57976 10.1628C2.63373 10.2165 2.68723 10.2706 2.74066 10.3249C2.75723 10.3412 2.77379 10.3574 2.79086 10.3742C2.93876 10.526 3.03644 10.6982 3.04722 10.9162C3.03531 11.1235 2.98112 11.2548 2.83381 11.3996C2.65783 11.5482 2.51237 11.5737 2.28968 11.5521C2.09857 11.4958 1.96583 11.3671 1.82921 11.226C1.81048 11.207 1.79175 11.188 1.77246 11.1685C1.71101 11.106 1.64988 11.0433 1.58877 10.9804C1.54596 10.9367 1.50315 10.8929 1.46032 10.8492C1.37078 10.7576 1.28141 10.6658 1.19214 10.5739C1.07792 10.4564 0.963205 10.3395 0.848343 10.2226C0.759836 10.1325 0.671653 10.042 0.583559 9.95136C0.5414 9.9081 0.499131 9.86495 0.456748 9.82193C0.397461 9.76166 0.338639 9.70096 0.27991 9.64012C0.262462 9.62258 0.245013 9.60504 0.227036 9.58696C0.090644 9.44412 0.000392923 9.2832 0 9.07614C0.0135396 8.82411 0.141191 8.64731 0.311076 8.47608C0.329613 8.45683 0.348151 8.43759 0.36725 8.41775C0.428056 8.35481 0.489351 8.2924 0.550691 8.23C0.593382 8.18612 0.63605 8.14222 0.678696 8.0983C0.767901 8.00658 0.857346 7.91511 0.946975 7.82383C1.06166 7.70701 1.17577 7.58961 1.28971 7.47203C1.37765 7.38139 1.46585 7.29103 1.55415 7.20076C1.59633 7.15758 1.63843 7.11432 1.68045 7.07098C1.73924 7.01042 1.79839 6.95025 1.85765 6.89017C1.87482 6.87233 1.892 6.8545 1.9097 6.83613C2.12704 6.61772 2.41858 6.52791 2.70961 6.66104Z" fill="#0066AE"/>
</svg>
